<?xml version="1.0" encoding="utf-8"?>
<!--
  ~ Copyright (C) 2018 Florian Dreier
  ~
  ~ This file is part of MyTargets.
  ~
  ~ MyTargets is free software: you can redistribute it and/or modify
  ~ it under the terms of the GNU General Public License version 2
  ~ as published by the Free Software Foundation.
  ~
  ~ MyTargets is distributed in the hope that it will be useful,
  ~ but WITHOUT ANY WARRANTY; without even the implied warranty of
  ~ MERCHANTABILITY or FITNESS FOR A PARTICULAR PURPOSE.  See the
  ~ GNU General Public License for more details.
  -->

<!-- Generator: Adobe Illustrator 21.0.0, SVG Export Plug-In . SVG Version: 6.00 Build 0)  -->
<svg version="1.1" id="Layer_1" xmlns="http://www.w3.org/2000/svg"  x="0px" y="0px"
	 viewBox="0 0 128 128" style="enable-background:new 0 0 128 128;" xml:space="preserve">
<style type="text/css">
	.st0{fill:#36C2E8;}
	.st1{fill:#018E0E;}
	.st2{fill:#FFBA57;}
	.st3{fill:#8E24AA;}
	.st4{fill:#7E8CCF;}
	.st5{fill:#5F6EC4;}
	.st6{fill:#263238;}
	.st7{fill:#313F44;}
	.st8{fill:#FFFF39;}
	.st9{fill:#FFFFFF;}
	.st10{stroke:#000000;stroke-miterlimit:10;}
	.st11{fill:#1D71B8;stroke:#000000;stroke-miterlimit:10;}
	.st12{fill:#E30613;}
	.st13{fill:#FCEA10;}
</style>
<circle class="st0" cx="64" cy="64" r="64"/>
<path class="st1" d="M64,128c35.3,0,64-28.7,64-64c0-5.5-0.7-10.8-2-15.9H2C0.7,53.2,0,58.5,0,64C0,99.3,28.7,128,64,128z"/>
<g>
	<path class="st2" d="M62.8,57.5h-19v5.7l19-1.2c1.3,0,2.3-1,2.3-2.3C65.1,58.5,64.1,57.5,62.8,57.5z"/>
	<path class="st3" d="M43.8,103.1c-1.7,0-3-1.4-3-3l-4.6-21.3L34.7,91v9.1c0,1.7-1.4,3-3,3s-3-1.4-3-3V75.8v-1.5h15.2v1.5l3,24.3
		C46.9,101.8,45.5,103.1,43.8,103.1z"/>
	<path class="st2" d="M35.5,43.8c2.9,0,5.3,2.4,5.3,5.3c0,2.9-2.4,5.3-5.3,5.3s-5.3-2.4-5.3-5.3C30.1,46.2,32.5,43.8,35.5,43.8"/>
	<rect x="28.6" y="57.5" class="st4" width="15.2" height="18.2"/>
	<path class="st5" d="M33.9,57.5c1.3,0,2.3,1,2.3,2.3s-1,2.3-2.3,2.3H21l7.6,1.5v1.5h5.3c1.5,0,2.8-0.6,3.7-1.5c0,0,0,0,0.1,0
		L48.3,63v-5.5H33.9L33.9,57.5z"/>
	<polygon class="st6" points="52.8,42.1 51.7,41 33.2,59 33.2,60.6 51.7,80.1 52.7,79 34.5,59.8 	"/>
	<path class="st7" d="M52.4,83.4h-2c0-4.3,3.5-5.5,5.5-5.6c0.8-0.1,8.1-1.7,8.2-8c-0.2-0.9-1.5-6.9-1.5-9.2c0-2.4,1.3-8.3,1.5-9.2
		c-0.1-6.3-7.3-7.8-8.2-8c-2,0-5.5-1.2-5.5-5.6h2c0,3.5,3.2,3.6,3.6,3.6h0.2c3.4,0.6,9.9,3.4,9.9,10.1v0.2c0,0.1-1.5,6.5-1.5,8.9
		c0,2.3,1.5,8.8,1.5,8.9v0.2c0,6.7-6.5,9.5-9.9,10.1h-0.1C55.7,79.8,52.4,80,52.4,83.4z"/>
	<path d="M68.5,60.1l-2.2-1.4l-0.9,0.9H38.6l-0.9-0.9h-3.6l0.9,0.9h-1.6v1H35l-0.9,0.9h3.6l0.9-0.9h26.9l0.9,0.9L68.5,60.1z"/>
	<path class="st2" d="M33.9,62.1H20.3c-1.3,0-2.3-1-2.3-2.3l0,0c0-1.3,1-2.3,2.3-2.3H34c1.3,0,2.3,1,2.3,2.3l0,0
		C36.2,61,35.2,62.1,33.9,62.1z"/>
</g>
<circle class="st8" cx="31.6" cy="18.3" r="12.1"/>
<g>
	<polygon points="95.6,39.9 95.3,39.2 91.5,37.7 80.1,67.2 85,67.2 	"/>
	<polygon points="95.6,39.9 106.2,67.2 111.1,67.2 99.6,37.5 95.3,39.1 95.3,39.2 95.8,39.4 	"/>
	<g>
		<g>
			<g>
				<circle class="st9" cx="95.9" cy="40.6" r="15.9"/>
			</g>
		</g>
		<circle class="st10" cx="95.9" cy="40.6" r="12.8"/>
		<path class="st11" d="M105.5,40.6c0,5.3-4.3,9.6-9.6,9.6c-5.3,0-9.6-4.3-9.6-9.6s4.3-9.6,9.6-9.6C101.2,31,105.5,35.3,105.5,40.6z
			"/>
		<circle class="st12" cx="95.9" cy="40.6" r="6.4"/>
		<circle class="st13" cx="95.9" cy="40.6" r="3.2"/>
	</g>
</g>
</svg>
