<?xml version="1.0" encoding="utf-8"?>
<!--
  ~ Copyright (C) 2018 Florian Dreier
  ~
  ~ This file is part of MyTargets.
  ~
  ~ MyTargets is free software: you can redistribute it and/or modify
  ~ it under the terms of the GNU General Public License version 2
  ~ as published by the Free Software Foundation.
  ~
  ~ MyTargets is distributed in the hope that it will be useful,
  ~ but WITHOUT ANY WARRANTY; without even the implied warranty of
  ~ MERCHANTABILITY or FITNESS FOR A PARTICULAR PURPOSE.  See the
  ~ GNU General Public License for more details.
  -->

<!-- Generator: Adobe Illustrator 21.0.0, SVG Export Plug-In . SVG Version: 6.00 Build 0)  -->
<svg version="1.1" id="Layer_1" xmlns="http://www.w3.org/2000/svg"  x="0px" y="0px"
	 viewBox="0 0 128 128" style="enable-background:new 0 0 128 128;" xml:space="preserve">
<style type="text/css">
	.st0{fill:#018E0E;}
	.st1{fill:#FFFFFF;}
	.st2{fill:#64B5F6;}
	.st3{fill:#9575CD;}
	.st4{fill:#4DD0E1;}
	.st5{fill:#43A047;}
	.st6{fill:#FB8C00;}
	.st7{fill:#E53935;}
	.st8{fill:#FFC107;}
	.st9{fill:#FFEB3B;}
	.st10{fill:#FFBA57;}
	.st11{fill:#8E24AA;}
	.st12{fill:#7E8CCF;}
	.st13{fill:#5F6EC4;}
	.st14{fill:#263238;}
	.st15{fill:#313F44;}
</style>
<g>
	<circle class="st0" cx="64" cy="64.5" r="47.5"/>
	<g>
		<g>
			<g>
				<path class="st1" d="M64,94.4c-0.9,0-1.9,0-2.8,0V94c0.9,0,1.9,0,2.8,0l0,0V94.4L64,94.4z M66.2,94.4V94c1,0,1.9,0,2.9-0.1v0.4
					C68.1,94.4,67.2,94.4,66.2,94.4z M59,94.3c-1,0-1.9-0.1-2.9-0.1v-0.4c0.9,0.1,1.9,0.1,2.9,0.1V94.3z M71.3,94.2v-0.4
					c0.9-0.1,1.9-0.1,2.8-0.2V94C73.2,94.1,72.2,94.2,71.3,94.2z M53.9,94C53,94,52,93.9,51,93.8v-0.4c0.9,0.1,1.9,0.2,2.8,0.2
					L53.9,94z M76.3,93.9v-0.4c0.9-0.1,1.9-0.2,2.8-0.3v0.4C78.3,93.7,77.3,93.8,76.3,93.9z M48.9,93.6c-0.9-0.1-1.9-0.2-2.8-0.4
					l0.1-0.4c0.9,0.1,1.9,0.2,2.8,0.4L48.9,93.6z M81.4,93.3l-0.1-0.4c0.9-0.1,1.9-0.3,2.8-0.4l0.1,0.4C83.3,93,82.3,93.2,81.4,93.3
					z M43.8,92.9c-0.9-0.1-1.9-0.3-2.8-0.5l0.1-0.4c0.9,0.2,1.9,0.3,2.8,0.5L43.8,92.9z M86.4,92.5l-0.1-0.4
					c0.9-0.2,1.9-0.3,2.8-0.5l0.1,0.4C88.3,92.2,87.3,92.4,86.4,92.5z M38.8,92c-0.9-0.2-1.9-0.4-2.8-0.6l0.1-0.4
					c0.9,0.2,1.9,0.4,2.8,0.6L38.8,92z M91.4,91.6l-0.1-0.4c0.9-0.2,1.9-0.4,2.8-0.7l0.1,0.4C93.2,91.1,92.3,91.4,91.4,91.6z
					 M33.9,90.9c-0.9-0.2-1.9-0.5-2.8-0.7l0.1-0.4c0.9,0.3,1.8,0.5,2.8,0.7L33.9,90.9z M96.3,90.3l-0.1-0.4c0.9-0.3,1.8-0.5,2.7-0.8
					l0.1,0.4C98.1,89.8,97.2,90.1,96.3,90.3z M29,89.6c-0.9-0.3-1.8-0.6-2.7-0.9l0.1-0.4c0.9,0.3,1.8,0.6,2.7,0.9L29,89.6z
					 M101.1,88.9l-0.1-0.4c0.9-0.3,1.8-0.6,2.7-0.9l0.2,0.4C103,88.3,102.1,88.6,101.1,88.9z M24.2,88c-0.9-0.3-1.8-0.7-2.7-1
					l0.2-0.4c0.9,0.4,1.8,0.7,2.7,1L24.2,88z M105.9,87.1l-0.2-0.4c0.9-0.4,1.8-0.7,2.6-1.1l0.2,0.4
					C107.7,86.4,106.8,86.8,105.9,87.1z M19.5,86c-0.9-0.4-1.8-0.8-2.6-1.2l0.2-0.4c0.8,0.4,1.7,0.8,2.6,1.2L19.5,86z M110.5,85.1
					l-0.2-0.4c0.9-0.4,1.7-0.9,2.5-1.3l0.2,0.4C112.3,84.2,111.4,84.6,110.5,85.1z M15,83.8c-0.9-0.5-1.7-1-2.5-1.5l0.2-0.4
					c0.8,0.5,1.6,1,2.4,1.4L15,83.8z M115,82.6l-0.2-0.4c0.8-0.5,1.6-1,2.4-1.6l0.3,0.4C116.6,81.6,115.8,82.1,115,82.6z M10.7,81.1
					c-0.8-0.6-1.6-1.1-2.3-1.7L8.6,79c0.7,0.6,1.5,1.2,2.3,1.7L10.7,81.1z M119.2,79.7l-0.3-0.3c0.8-0.6,1.5-1.2,2.2-1.9l0.3,0.3
					C120.7,78.5,119.9,79.1,119.2,79.7z M6.7,77.9c-0.7-0.7-1.4-1.4-2-2.1L5,75.5c0.6,0.7,1.3,1.4,2,2L6.7,77.9z M122.9,76.3
					l-0.3-0.3c0.7-0.7,1.3-1.5,1.8-2.2l0.4,0.3C124.2,74.8,123.6,75.5,122.9,76.3z M3.3,74.1c-0.6-0.8-1.1-1.6-1.5-2.5l0.4-0.2
					c0.4,0.8,0.9,1.6,1.5,2.4L3.3,74.1z M125.9,72.2l-0.4-0.2c0.5-0.8,0.9-1.7,1.2-2.6l0.4,0.1C126.8,70.4,126.4,71.3,125.9,72.2z
					 M0.9,69.6c-0.3-0.9-0.6-1.9-0.7-2.8l0.4-0.1c0.1,0.9,0.4,1.8,0.7,2.7L0.9,69.6z M127.7,67.4l-0.4-0.1c0.2-0.9,0.3-1.9,0.3-2.8
					v-0.1h0.4v0.1C128,65.5,127.9,66.5,127.7,67.4z M0,64.6L0,64.6c0-1,0.1-1.9,0.3-2.9l0.4,0.1c-0.2,0.9-0.3,1.8-0.3,2.7v0.1
					L0,64.6z M127.4,62.3c-0.1-0.9-0.4-1.8-0.7-2.7l0.4-0.2c0.3,0.9,0.6,1.9,0.7,2.8L127.4,62.3z M1.3,59.7l-0.4-0.1
					c0.3-0.9,0.7-1.8,1.2-2.6l0.4,0.2C2,58,1.6,58.9,1.3,59.7z M125.8,57.6c-0.4-0.8-0.9-1.6-1.5-2.4l0.4-0.3
					c0.6,0.8,1.1,1.6,1.5,2.4L125.8,57.6z M3.6,55.3L3.2,55c0.5-0.8,1.1-1.5,1.8-2.2l0.3,0.3C4.7,53.8,4.1,54.6,3.6,55.3z
					 M122.9,53.5c-0.6-0.7-1.3-1.4-2-2l0.3-0.3c0.7,0.7,1.4,1.4,2,2.1L122.9,53.5z M6.9,51.6l-0.3-0.3C7.3,50.6,8,50,8.8,49.4
					l0.3,0.3C8.3,50.3,7.6,50.9,6.9,51.6z M119.3,50c-0.7-0.6-1.5-1.2-2.3-1.7l0.3-0.4c0.8,0.6,1.6,1.1,2.3,1.7L119.3,50z
					 M10.8,48.4L10.5,48c0.8-0.5,1.6-1.1,2.4-1.6l0.2,0.4C12.4,47.4,11.6,47.9,10.8,48.4z M115.2,47.1c-0.8-0.5-1.6-1-2.5-1.4
					l0.2-0.4c0.9,0.5,1.7,1,2.5,1.5L115.2,47.1z M15.1,45.7l-0.2-0.4c0.8-0.5,1.7-0.9,2.5-1.3l0.2,0.4
					C16.7,44.8,15.9,45.3,15.1,45.7z M110.8,44.6c-0.8-0.4-1.7-0.8-2.6-1.2l0.2-0.4c0.9,0.4,1.8,0.8,2.6,1.2L110.8,44.6z M19.6,43.5
					l-0.2-0.4c0.9-0.4,1.7-0.8,2.6-1.1l0.2,0.4C21.3,42.7,20.4,43.1,19.6,43.5z M106.3,42.5c-0.9-0.4-1.8-0.7-2.7-1l0.2-0.4
					c0.9,0.3,1.8,0.7,2.7,1L106.3,42.5z M24.3,41.6l-0.2-0.4c0.9-0.3,1.8-0.6,2.7-1l0.1,0.4C26,40.9,25.1,41.2,24.3,41.6z
					 M101.5,40.8c-0.9-0.3-1.8-0.6-2.7-0.9l0.1-0.4c0.9,0.3,1.8,0.6,2.7,0.9L101.5,40.8z M29,39.9l-0.1-0.4c0.9-0.3,1.8-0.5,2.8-0.8
					l0.1,0.4C30.9,39.4,29.9,39.7,29,39.9z M96.7,39.3c-0.9-0.3-1.8-0.5-2.8-0.7l0.1-0.4c0.9,0.2,1.9,0.5,2.8,0.7L96.7,39.3z
					 M33.9,38.6l-0.1-0.4c0.9-0.2,1.9-0.4,2.8-0.7l0.1,0.4C35.7,38.2,34.8,38.4,33.9,38.6z M91.8,38.1c-0.9-0.2-1.9-0.4-2.8-0.6
					l0.1-0.4c0.9,0.2,1.9,0.4,2.8,0.6L91.8,38.1z M38.8,37.5l-0.1-0.4c0.9-0.2,1.9-0.4,2.8-0.5l0.1,0.4
					C40.7,37.1,39.7,37.3,38.8,37.5z M86.9,37.1c-0.9-0.2-1.9-0.3-2.8-0.5l0.1-0.4c0.9,0.1,1.9,0.3,2.8,0.5L86.9,37.1z M43.8,36.6
					l-0.1-0.4c0.9-0.1,1.9-0.3,2.8-0.4l0.1,0.4C45.7,36.3,44.7,36.5,43.8,36.6z M81.9,36.3c-1-0.2-1.9-0.3-2.9-0.4v-0.4
					c0.9,0.1,1.9,0.2,2.8,0.4L81.9,36.3z M48.8,35.9v-0.4c0.9-0.1,1.9-0.2,2.8-0.3v0.4C50.7,35.7,49.7,35.8,48.8,35.9z M76.9,35.7
					c-0.9-0.1-1.9-0.2-2.8-0.2v-0.4c1,0.1,1.9,0.2,2.9,0.2L76.9,35.7z M53.8,35.5v-0.4c0.9-0.1,1.9-0.1,2.9-0.2v0.4
					C55.7,35.3,54.8,35.4,53.8,35.5z M71.8,35.3c-0.9-0.1-1.9-0.1-2.9-0.1v-0.4c1,0,1.9,0.1,2.9,0.1V35.3z M58.9,35.2v-0.4
					c0.9,0,1.9-0.1,2.9-0.1v0.4C60.8,35.1,59.8,35.1,58.9,35.2z M66.8,35.1c-0.9,0-1.9,0-2.8,0h-0.1v-0.4H64c0.9,0,1.9,0,2.8,0V35.1
					z"/>
			</g>
			<g>
				<path class="st1" d="M88.3,122v-0.4c1,0,1.9-0.1,2.8-0.3l0.1,0.4C90.3,121.9,89.3,121.9,88.3,122z M86.1,121.9
					c-0.9-0.1-1.9-0.2-2.8-0.5l0.1-0.4c0.9,0.2,1.9,0.4,2.8,0.5L86.1,121.9z M93.4,121.1l-0.1-0.4c0.9-0.3,1.8-0.7,2.6-1.2l0,0
					l0.2,0.4l0,0C95.2,120.4,94.3,120.8,93.4,121.1z M81.1,120.8c-0.9-0.3-1.8-0.6-2.7-1l0.2-0.4c0.9,0.4,1.8,0.7,2.7,0.9
					L81.1,120.8z M76.4,119c-0.8-0.4-1.7-0.8-2.6-1.3l0.2-0.4c0.9,0.5,1.7,0.9,2.5,1.3L76.4,119z M97.9,118.7l-0.3-0.3
					c0.7-0.6,1.4-1.2,2-2l0.3,0.3C99.3,117.4,98.6,118.1,97.9,118.7z M71.9,116.6c-0.8-0.5-1.6-1-2.4-1.5l0.2-0.4
					c0.8,0.5,1.6,1,2.4,1.5L71.9,116.6z M101.2,114.9l-0.4-0.2c0.5-0.8,0.9-1.6,1.3-2.5l0.4,0.2
					C102.2,113.2,101.7,114.1,101.2,114.9z M67.7,113.8c-0.8-0.5-1.5-1.1-2.3-1.7l0.3-0.3c0.8,0.6,1.5,1.2,2.3,1.7L67.7,113.8z
					 M63.6,110.7c-0.7-0.6-1.5-1.2-2.2-1.9l0.3-0.3c0.7,0.6,1.4,1.3,2.2,1.9L63.6,110.7z M103.4,110.3l-0.4-0.1
					c0.3-0.9,0.6-1.8,0.8-2.7l0.4,0.1C104,108.4,103.7,109.4,103.4,110.3z M59.8,107.4c-0.7-0.6-1.4-1.3-2.1-2l0.3-0.3
					c0.7,0.7,1.4,1.3,2.1,2L59.8,107.4z M104.6,105.3l-0.4-0.1c0.1-0.9,0.3-1.9,0.4-2.8h0.4C104.9,103.4,104.8,104.4,104.6,105.3z
					 M56.2,103.8c-0.7-0.7-1.3-1.4-2-2.1l0.3-0.3c0.6,0.7,1.3,1.4,2,2.1L56.2,103.8z M105.1,100.3h-0.4c0-0.6,0-1.3,0-2
					c0-0.3,0-0.6,0-0.9h0.4c0,0.3,0,0.6,0,0.9C105.2,98.9,105.2,99.6,105.1,100.3z M52.8,100.1c-0.6-0.7-1.2-1.4-1.9-2.2l0.3-0.3
					c0.6,0.7,1.2,1.5,1.9,2.2L52.8,100.1z M49.5,96.2c-0.6-0.7-1.2-1.5-1.8-2.3l0.3-0.3c0.6,0.8,1.2,1.5,1.8,2.2L49.5,96.2z
					 M104.6,95.2c-0.1-0.9-0.1-1.9-0.2-2.8h0.4c0.1,1,0.2,1.9,0.2,2.9L104.6,95.2z M46.4,92.2c-0.6-0.8-1.1-1.5-1.7-2.3l0.4-0.3
					c0.5,0.8,1.1,1.6,1.7,2.3L46.4,92.2z M104.2,90.2c-0.1-0.9-0.3-1.9-0.4-2.8l0.4-0.1c0.2,1,0.3,1.9,0.4,2.8L104.2,90.2z
					 M43.5,88.1c-0.5-0.8-1.1-1.6-1.6-2.4l0.4-0.2c0.5,0.8,1.1,1.6,1.6,2.4L43.5,88.1z M103.4,85.2c-0.2-0.9-0.4-1.9-0.6-2.8
					l0.4-0.1c0.2,0.9,0.4,1.9,0.6,2.8L103.4,85.2z M40.7,83.8c-0.5-0.8-1-1.6-1.5-2.4l0.4-0.2c0.5,0.8,1,1.6,1.5,2.4L40.7,83.8z
					 M102.2,80.3c-0.2-0.9-0.5-1.8-0.7-2.8l0.4-0.1c0.3,0.9,0.5,1.9,0.8,2.8L102.2,80.3z M38.1,79.5L38.1,79.5
					c-0.5-0.8-1-1.7-1.4-2.5l0.4-0.2c0.5,0.8,0.9,1.7,1.4,2.5l0,0l-0.2,0.1L38.1,79.5z M100.9,75.4c-0.3-0.9-0.6-1.8-0.9-2.7
					l0.4-0.1c0.3,0.9,0.6,1.8,0.9,2.7L100.9,75.4z M35.7,75c-0.4-0.8-0.9-1.7-1.3-2.5l0.4-0.2c0.4,0.8,0.9,1.7,1.3,2.5L35.7,75z
					 M99.3,70.6c-0.3-0.9-0.7-1.8-1-2.7l0.4-0.2c0.3,0.9,0.7,1.8,1,2.7L99.3,70.6z M33.4,70.5c-0.4-0.9-0.8-1.7-1.2-2.6l0.4-0.2
					c0.4,0.9,0.8,1.7,1.2,2.6L33.4,70.5z M97.4,65.9c-0.4-0.9-0.7-1.8-1.1-2.6l0.4-0.2c0.4,0.9,0.8,1.8,1.1,2.6L97.4,65.9z
					 M31.3,65.9c-0.4-0.9-0.8-1.8-1.1-2.6l0.4-0.2c0.4,0.9,0.7,1.8,1.1,2.6L31.3,65.9z M95.4,61.3c-0.4-0.9-0.8-1.7-1.2-2.6l0.4-0.2
					c0.4,0.9,0.8,1.7,1.2,2.6L95.4,61.3z M29.3,61.2c-0.3-0.9-0.7-1.8-1-2.7l0.4-0.1c0.3,0.9,0.7,1.8,1,2.7L29.3,61.2z M93.2,56.8
					c-0.4-0.8-0.9-1.7-1.3-2.5l0.4-0.2c0.4,0.8,0.9,1.7,1.3,2.5L93.2,56.8z M27.6,56.5c-0.3-0.9-0.6-1.8-0.9-2.7l0.4-0.1
					c0.3,0.9,0.6,1.8,0.9,2.7L27.6,56.5z M90.9,52.3c-0.5-0.8-0.9-1.7-1.4-2.5l0.4-0.2l0,0c0.5,0.8,0.9,1.7,1.4,2.5L90.9,52.3z
					 M26.1,51.6c-0.3-0.9-0.5-1.9-0.8-2.8l0.4-0.1c0.2,0.9,0.5,1.8,0.7,2.8L26.1,51.6z M88.4,47.9c-0.5-0.8-1-1.6-1.5-2.4l0.4-0.2
					c0.5,0.8,1,1.6,1.5,2.4L88.4,47.9z M24.8,46.7c-0.2-0.9-0.4-1.9-0.6-2.8l0.4-0.1c0.2,0.9,0.4,1.9,0.6,2.8L24.8,46.7z M85.7,43.6
					c-0.5-0.8-1-1.6-1.6-2.4l0.4-0.2c0.5,0.8,1.1,1.6,1.6,2.4L85.7,43.6z M23.8,41.8c-0.2-1-0.3-1.9-0.4-2.8l0.4-0.1
					c0.1,0.9,0.3,1.9,0.4,2.8L23.8,41.8z M82.9,39.4c-0.5-0.8-1.1-1.6-1.7-2.3l0.4-0.3c0.6,0.8,1.1,1.5,1.7,2.3L82.9,39.4z
					 M23.1,36.7c-0.1-1-0.2-1.9-0.2-2.9h0.4c0.1,0.9,0.1,1.9,0.2,2.8L23.1,36.7z M79.9,35.4c-0.6-0.8-1.2-1.5-1.8-2.2l0.3-0.3
					c0.6,0.7,1.2,1.5,1.8,2.3L79.9,35.4z M22.8,31.7c0-0.3,0-0.6,0-0.9c0-0.7,0-1.3,0-2h0.4c0,0.6,0,1.3,0,2c0,0.3,0,0.6,0,0.9H22.8
					z M76.7,31.4c-0.6-0.7-1.2-1.5-1.9-2.2l0.3-0.3c0.6,0.7,1.2,1.4,1.9,2.2L76.7,31.4z M73.4,27.6c-0.6-0.7-1.3-1.4-2-2.1l0.3-0.3
					c0.7,0.7,1.3,1.4,2,2.1L73.4,27.6z M23.4,26.6H23c0.1-1,0.2-1.9,0.4-2.9l0.4,0.1C23.6,24.7,23.5,25.7,23.4,26.6z M69.9,24
					c-0.7-0.7-1.4-1.3-2.1-2l0.3-0.3c0.7,0.6,1.4,1.3,2.1,2L69.9,24z M24.2,21.7l-0.4-0.1c0.2-1,0.5-1.9,0.8-2.8l0.4,0.1
					C24.7,19.8,24.4,20.7,24.2,21.7z M66.2,20.5c-0.7-0.6-1.4-1.3-2.2-1.9l0.3-0.3c0.7,0.6,1.5,1.2,2.2,1.9L66.2,20.5z M62.4,17.3
					c-0.8-0.6-1.5-1.2-2.3-1.7l0.3-0.4c0.8,0.5,1.5,1.1,2.3,1.7L62.4,17.3z M25.8,16.9l-0.4-0.2c0.4-0.9,0.9-1.8,1.4-2.5l0.4,0.2
					C26.7,15.2,26.2,16,25.8,16.9z M58.3,14.3c-0.8-0.5-1.6-1-2.4-1.5l0.2-0.4c0.8,0.5,1.6,1,2.4,1.5L58.3,14.3z M28.4,12.7
					l-0.3-0.3c0.6-0.8,1.3-1.4,2.1-2l0.3,0.3C29.7,11.3,29,12,28.4,12.7z M54,11.7c-0.9-0.5-1.7-0.9-2.5-1.3l0.2-0.4
					c0.8,0.4,1.7,0.8,2.6,1.3L54,11.7z M49.4,9.6c-0.9-0.4-1.8-0.7-2.7-0.9l0.1-0.4c0.9,0.3,1.8,0.6,2.7,1L49.4,9.6z M32.2,9.5
					L32,9.1l0,0c0.8-0.5,1.7-0.9,2.6-1.2l0.1,0.4C33.9,8.6,33,9,32.2,9.5z M44.6,8.1c-0.9-0.2-1.9-0.4-2.8-0.4V7.3
					c0.9,0.1,1.9,0.2,2.8,0.5V8.1z M36.9,7.8l-0.1-0.4c0.9-0.2,1.9-0.3,2.9-0.3v0.4C38.7,7.6,37.8,7.6,36.9,7.8z"/>
			</g>
			<g>
				<path class="st1" d="M39.9,122c-0.3,0-0.6,0-0.9,0v-0.4c0.9,0,1.9,0,2.8-0.1v0.4C41.2,121.9,40.5,122,39.9,122z M36.8,121.7
					c-1-0.2-1.9-0.4-2.8-0.8l0.2-0.4c0.9,0.3,1.8,0.6,2.7,0.8L36.8,121.7z M44.1,121.5l-0.1-0.4c0.9-0.2,1.8-0.4,2.7-0.7l0.1,0.4
					C46,121.1,45,121.4,44.1,121.5z M49,120.1l-0.2-0.4c0.9-0.3,1.7-0.7,2.6-1.1l0.2,0.4C50.7,119.4,49.9,119.8,49,120.1z M32,120
					l0.1-0.2L32,120c-0.8-0.5-1.6-1-2.3-1.7L30,118c0.7,0.6,1.5,1.2,2.3,1.6l-0.1,0.2L32,120z M53.6,118l-0.2-0.4
					c0.8-0.4,1.7-0.9,2.5-1.4l0.2,0.4C55.3,117.1,54.4,117.6,53.6,118z M28.1,116.7c-0.6-0.7-1.2-1.5-1.7-2.4l0.4-0.2
					c0.5,0.8,1,1.6,1.6,2.3L28.1,116.7z M58,115.4l-0.2-0.4c0.8-0.5,1.6-1,2.3-1.6l0.3,0.4C59.6,114.4,58.8,114.9,58,115.4z
					 M62.1,112.5l-0.3-0.3c0.7-0.6,1.5-1.2,2.2-1.8l0.3,0.3C63.6,111.3,62.9,111.9,62.1,112.5z M25.4,112.3c-0.4-0.8-0.7-1.7-1-2.7
					l0.4-0.1c0.3,0.9,0.6,1.8,1,2.6L25.4,112.3z M66,109.3l-0.3-0.3c0.7-0.6,1.4-1.3,2.1-1.9l0.3,0.3C67.5,108,66.8,108.7,66,109.3z
					 M23.8,107.5c-0.2-0.9-0.4-1.9-0.5-2.8l0.4-0.1c0.1,1,0.3,1.9,0.5,2.8L23.8,107.5z M69.8,105.8l-0.3-0.3c0.7-0.7,1.3-1.3,2-2
					l0.3,0.3C71.1,104.5,70.4,105.2,69.8,105.8z M23,102.5c-0.1-0.9-0.1-1.9-0.2-2.9h0.4c0,1,0.1,1.9,0.2,2.8L23,102.5z M73.3,102.2
					l-0.3-0.3c0.6-0.7,1.3-1.4,1.9-2.1l0.3,0.3C74.6,100.8,73.9,101.5,73.3,102.2z M76.7,98.4l-0.3-0.3c0.6-0.7,1.2-1.5,1.8-2.2
					l0.3,0.3C77.9,96.9,77.3,97.7,76.7,98.4z M23.3,97.4h-0.4c0-0.9,0.1-1.9,0.1-2.9h0.4C23.3,95.5,23.3,96.5,23.3,97.4z M79.8,94.5
					l-0.3-0.3c0.6-0.7,1.2-1.5,1.7-2.3l0.4,0.3C81,93,80.4,93.7,79.8,94.5z M23.6,92.4h-0.4c0.1-0.9,0.2-1.9,0.3-2.8l0.4,0.1
					C23.8,90.5,23.7,91.5,23.6,92.4z M82.9,90.4l-0.4-0.3c0.5-0.8,1.1-1.6,1.6-2.3l0.4,0.2C84,88.8,83.4,89.6,82.9,90.4z M24.2,87.4
					l-0.4-0.1c0.2-0.9,0.3-1.9,0.5-2.8l0.4,0.1C24.6,85.5,24.4,86.5,24.2,87.4z M85.7,86.2L85.4,86c0.5-0.8,1-1.6,1.5-2.4l0.4,0.2
					C86.8,84.6,86.2,85.4,85.7,86.2z M25.2,82.5l-0.4-0.1c0.2-0.9,0.4-1.9,0.7-2.8l0.4,0.1C25.7,80.6,25.5,81.5,25.2,82.5z
					 M88.4,81.9L88,81.7c0.5-0.8,1-1.6,1.4-2.5l0.2,0.1l0.2,0.1l0,0C89.4,80.3,88.9,81.1,88.4,81.9z M26.5,77.6l-0.4-0.1
					c0.3-0.9,0.5-1.8,0.8-2.7l0.4,0.1C27,75.7,26.8,76.7,26.5,77.6z M91,77.6l-0.4-0.2c0.5-0.8,0.9-1.7,1.4-2.5l0.4,0.2
					C91.9,75.9,91.4,76.7,91,77.6z M93.4,73.1L93,72.9c0.4-0.8,0.9-1.7,1.3-2.6l0.4,0.2C94.2,71.4,93.8,72.2,93.4,73.1z M28,72.8
					l-0.4-0.1c0.3-0.9,0.6-1.8,1-2.7l0.4,0.2C28.6,71,28.3,71.9,28,72.8z M95.6,68.5l-0.4-0.2c0.4-0.9,0.8-1.7,1.2-2.6l0.4,0.2
					C96.4,66.8,96,67.7,95.6,68.5z M29.7,68l-0.4-0.2c0.3-0.9,0.7-1.8,1.1-2.7l0.4,0.2C30.4,66.2,30.1,67.1,29.7,68z M97.6,63.9
					l-0.4-0.2c0.4-0.9,0.7-1.8,1.1-2.6l0.4,0.2C98.3,62.1,98,63,97.6,63.9z M31.7,63.3l-0.4-0.2c0.4-0.9,0.8-1.7,1.2-2.6l0.4,0.2
					C32.4,61.6,32,62.5,31.7,63.3z M99.4,59.2L99,59c0.3-0.9,0.6-1.8,0.9-2.7l0.4,0.1C100.1,57.4,99.8,58.3,99.4,59.2z M33.8,58.7
					l-0.4-0.2c0.4-0.9,0.8-1.7,1.3-2.6l0.4,0.2C34.6,57,34.2,57.9,33.8,58.7z M101.1,54.4l-0.4-0.1c0.3-0.9,0.6-1.8,0.8-2.7l0.4,0.1
					C101.7,52.5,101.4,53.5,101.1,54.4z M36,54.2L35.7,54c0.4-0.8,0.9-1.7,1.4-2.5l0.4,0.2C36.9,52.6,36.5,53.4,36,54.2z M38.5,49.8
					l-0.4-0.2l0,0c0.5-0.8,1-1.6,1.4-2.4l0.4,0.2C39.5,48.2,39,49,38.5,49.8z M102.5,49.5l-0.4-0.1c0.2-0.9,0.5-1.9,0.7-2.8l0.4,0.1
					C103,47.6,102.7,48.6,102.5,49.5z M41.1,45.5l-0.4-0.2c0.5-0.8,1-1.6,1.5-2.4l0.4,0.2C42.1,43.9,41.6,44.7,41.1,45.5z
					 M103.7,44.6l-0.4-0.1c0.2-0.9,0.4-1.9,0.5-2.8l0.4,0.1C104,42.7,103.8,43.6,103.7,44.6z M43.9,41.3L43.5,41
					c0.5-0.8,1.1-1.6,1.6-2.4l0.4,0.3C44.9,39.7,44.4,40.5,43.9,41.3z M104.5,39.6l-0.4-0.1c0.1-1,0.2-1.9,0.3-2.8h0.4
					C104.8,37.7,104.7,38.6,104.5,39.6z M46.8,37.1l-0.4-0.3c0.6-0.8,1.1-1.5,1.7-2.3l0.3,0.3C47.9,35.6,47.3,36.4,46.8,37.1z
					 M105,34.5h-0.4c0.1-1,0.1-1.9,0.1-2.8h0.4C105.1,32.6,105.1,33.6,105,34.5z M49.9,33.2l-0.3-0.3c0.6-0.7,1.2-1.5,1.8-2.2
					l0.3,0.3C51.1,31.7,50.5,32.4,49.9,33.2z M104.7,29.5c0-1-0.1-1.9-0.2-2.8h0.4c0.1,0.9,0.1,1.9,0.2,2.9L104.7,29.5z M53.1,29.3
					L52.8,29c0.6-0.7,1.3-1.4,1.9-2.1l0.3,0.3C54.4,27.9,53.7,28.6,53.1,29.3z M56.5,25.6l-0.3-0.3c0.7-0.7,1.3-1.4,2-2l0.3,0.3
					C57.9,24.2,57.2,24.9,56.5,25.6z M104.3,24.4c-0.1-1-0.3-1.9-0.5-2.8l0.4-0.1c0.2,0.9,0.4,1.9,0.5,2.8L104.3,24.4z M60.1,22
					l-0.3-0.3c0.7-0.7,1.4-1.3,2.1-1.9l0.3,0.3C61.5,20.7,60.8,21.4,60.1,22z M103.2,19.6c-0.3-0.9-0.6-1.8-1-2.6l0.4-0.2
					c0.4,0.8,0.7,1.8,1,2.7L103.2,19.6z M63.9,18.7l-0.3-0.3c0.7-0.6,1.5-1.2,2.2-1.8l0.3,0.3C65.4,17.5,64.6,18.1,63.9,18.7z
					 M67.9,15.6l-0.3-0.4c0.8-0.6,1.6-1.1,2.4-1.6l0.2,0.4C69.5,14.5,68.7,15,67.9,15.6z M101.2,15c-0.5-0.8-1-1.6-1.6-2.3l0.3-0.3
					c0.6,0.7,1.2,1.5,1.7,2.4L101.2,15z M72.1,12.8l-0.2-0.4c0.8-0.5,1.7-1,2.5-1.4l0.2,0.4C73.8,11.9,72.9,12.3,72.1,12.8z
					 M98.1,11.1c-0.7-0.6-1.5-1.2-2.3-1.6l0.1-0.2L96,9.1l-0.1,0.2L96,9.1c0.8,0.5,1.6,1.1,2.3,1.7L98.1,11.1z M76.5,10.5l-0.2-0.4
					C77.2,9.7,78.1,9.3,79,9l0.2,0.4C78.3,9.7,77.4,10.1,76.5,10.5z M81.2,8.7l-0.1-0.4C82,8,83,7.7,83.9,7.5L84,8
					C83.1,8.1,82.2,8.4,81.2,8.7z M93.8,8.5C93,8.2,92,8,91.1,7.8l0.1-0.4c1,0.2,1.9,0.4,2.8,0.8L93.8,8.5z M86.1,7.6V7.2
					c1-0.1,2-0.1,2.9-0.1v0.4C88,7.5,87.1,7.5,86.1,7.6z"/>
			</g>
		</g>
		<g>
			<g>
				<path class="st1" d="M104.8,51.9c-6,0-10.9-4.9-10.9-10.9s4.9-10.9,10.9-10.9S115.7,35,115.7,41C115.8,47,110.9,51.9,104.8,51.9
					z"/>
				<path class="st2" d="M104.8,32c-4.9,0-8.9,4-8.9,8.9s4,8.9,8.9,8.9s8.9-4,8.9-8.9S109.8,32,104.8,32z"/>
				<path d="M110.2,36.2l-2.5,0.5V38l-3.8,3.8h-1.3l-2.5,2.5h1.3l-1.2,1.2l0.7,0.7l1.2-1.2v1.3l2.5-2.5v-1.3l3.8-3.8h1.3L110.2,36.2
					z"/>
			</g>
			<g>
				<path class="st1" d="M64,27.9c-6,0-10.9-4.9-10.9-10.9S58,6.1,64,6.1S74.9,11,74.9,17S70,27.9,64,27.9z"/>
				<path class="st3" d="M64,8.1c-4.9,0-8.9,4-8.9,8.9s4,8.9,8.9,8.9s8.9-4,8.9-8.9S68.9,8.1,64,8.1z"/>
				<path d="M62.9,9.2L62.9,9.2L62.9,9.2c-0.5,0.6-0.4,1.4,0,1.9L63,22.3c-0.4,0.5-0.4,1.3,0.1,1.8l0.9-0.7
					c-0.2-0.2-0.1-0.5,0.1-0.6c0.6-0.4,1.5-0.9,2.3-1.5c0.8-0.7,1.4-1.5,1.4-2.6c0-1-0.5-1.7-0.6-1.9v-0.3c0.1-0.2,0.6-1,0.6-1.9
					c0-1-0.7-1.8-1.5-2.4c-0.8-0.6-1.7-1.2-2.3-1.5c-0.2-0.1-0.3-0.4-0.1-0.6l0,0L62.9,9.2z M63.5,11.6c0.6,0.3,1.4,0.8,2.1,1.3
					c0.7,0.6,1.1,1.1,1.1,1.6c0,0.6-0.5,1.5-0.5,1.5l-0.1,0.1v0.2v0.6v0.2l0.1,0.1c0,0,0.5,0.8,0.5,1.5c0,0.6-0.4,1.2-1,1.7
					c-0.6,0.6-1.5,1-2.1,1.4L63.5,11.6z"/>
			</g>
			<g>
				<path class="st1" d="M23.8,51.9c-6,0-10.9-4.9-10.9-10.9s4.9-10.9,10.9-10.9S34.7,35,34.7,41C34.8,47,29.8,51.9,23.8,51.9z"/>
				<path class="st4" d="M23.8,32c-4.9,0-8.9,4-8.9,8.9s4,8.9,8.9,8.9s8.9-4,8.9-8.9S28.7,32,23.8,32z"/>
				<g>
					<path d="M28.7,39.7h-1.8V39c1-0.3,1.8-1.2,1.8-2.4h-1.8V36c0-0.3-0.3-0.6-0.6-0.6h-4.9c-0.3,0-0.6,0.3-0.6,0.6v0.6H19
						c0,1.1,0.8,2.1,1.8,2.4v0.7H19c0,1.1,0.8,2.1,1.8,2.4v0.7H19c0,1.1,0.8,2.1,1.8,2.4v0.7c0,0.3,0.3,0.6,0.6,0.6h4.9
						c0.3,0,0.6-0.3,0.6-0.6v-0.7c1-0.3,1.8-1.2,1.8-2.4h-1.8v-0.7C27.9,41.8,28.7,40.9,28.7,39.7z"/>
					<circle class="st5" cx="23.8" cy="44" r="1.2"/>
					<circle class="st6" cx="23.8" cy="41" r="1.2"/>
					<circle class="st7" cx="23.8" cy="37.9" r="1.2"/>
				</g>
			</g>
			<g>
				<path class="st1" d="M24.1,99.5c-6,0-10.9-4.9-10.9-10.9s4.9-10.9,10.9-10.9S35,82.6,35,88.6S30.1,99.5,24.1,99.5z"/>
				<path class="st8" d="M24.1,79.6c-4.9,0-8.9,4-8.9,8.9s4,8.9,8.9,8.9s8.9-4,8.9-8.9S29,79.6,24.1,79.6z"/>
				<path d="M30,86.3c0,0.6-0.5,1.1-1.1,1.1c-0.1,0-0.2,0-0.3,0l-2,2c0,0.1,0,0.2,0,0.3c0,0.6-0.5,1.1-1.1,1.1s-1.1-0.5-1.1-1.1
					c0-0.1,0-0.2,0-0.3L23,87.9c-0.1,0-0.2,0-0.3,0c-0.1,0-0.2,0-0.3,0l-2.6,2.6c0,0.1,0,0.2,0,0.3c0,0.6-0.5,1.1-1.1,1.1
					s-1.1-0.5-1.1-1.1s0.5-1.1,1.1-1.1c0.1,0,0.2,0,0.3,0l2.6-2.6c0-0.1,0-0.2,0-0.3c0-0.6,0.5-1.1,1.1-1.1s1.1,0.5,1.1,1.1
					c0,0.1,0,0.2,0,0.3l1.4,1.4c0.1,0,0.2,0,0.3,0c0.1,0,0.2,0,0.3,0l2-2c0-0.1,0-0.2,0-0.3c0-0.6,0.5-1.1,1.1-1.1
					C29.5,85.2,30,85.7,30,86.3z"/>
			</g>
			<g>
				<path class="st1" d="M104.8,99.5c-6,0-10.9-4.9-10.9-10.9s4.9-10.9,10.9-10.9s10.9,4.9,10.9,10.9
					C115.8,94.6,110.9,99.5,104.8,99.5z"/>
				<path class="st9" d="M104.8,79.6c-4.9,0-8.9,4-8.9,8.9s4,8.9,8.9,8.9s8.9-4,8.9-8.9S109.8,79.6,104.8,79.6z"/>
				<path d="M109.1,88c-0.2-2-1.8-3.6-3.8-3.8v-1h-1v1c-2,0.2-3.6,1.8-3.8,3.8h-1v1h1c0.2,2,1.8,3.6,3.8,3.8v1h1v-1
					c2-0.2,3.6-1.8,3.8-3.8h1v-1H109.1z M108.1,88h-2.8v-2.8C106.8,85.4,107.9,86.6,108.1,88z M104.4,85.2V88h-2.8
					C101.8,86.6,102.9,85.4,104.4,85.2z M101.5,89h2.8v2.8C102.9,91.6,101.8,90.5,101.5,89z M105.3,91.8V89h2.8
					C107.9,90.5,106.8,91.6,105.3,91.8z"/>
			</g>
		</g>
	</g>
</g>
<g>
	<path class="st10" d="M76.6,56.4H65.1v3.5l11.5-0.7c0.8,0,1.4-0.6,1.4-1.4S77.3,56.4,76.6,56.4z"/>
	<path class="st11" d="M65.1,84c-1,0-1.8-0.8-1.8-1.8l-2.8-12.9l-0.9,7.4v5.5c0,1-0.8,1.8-1.8,1.8S56,83.2,56,82.2V67.5v-0.9h9.2
		v0.9L67,82.2C66.9,83.2,66.1,84,65.1,84z"/>
	<path class="st10" d="M60,48.1c1.8,0,3.2,1.4,3.2,3.2s-1.4,3.2-3.2,3.2s-3.2-1.4-3.2-3.2C56.8,49.6,58.2,48.1,60,48.1"/>
	<rect x="55.9" y="56.4" class="st12" width="9.2" height="11"/>
	<path class="st13" d="M59.1,56.4c0.8,0,1.4,0.6,1.4,1.4s-0.6,1.4-1.4,1.4h-7.8l4.6,0.9V61h3.2c0.9,0,1.7-0.4,2.3-0.9l0,0l6.4-0.4
		v-3.3C67.8,56.4,59.1,56.4,59.1,56.4z"/>
	<polygon class="st14" points="70.5,47.1 69.8,46.5 58.6,57.3 58.6,58.3 69.8,70.1 70.5,69.4 59.5,57.8 	"/>
	<g>
		<path class="st15" d="M70.7,72.1h-2c0-2.7,2.2-3.8,3.7-3.8c0.6-0.1,4.5-1,4.6-4.4c-0.2-0.8-0.9-4.1-0.9-5.6s0.7-4.8,0.9-5.6
			c-0.1-3.4-4-4.3-4.6-4.4c-1.5,0-3.7-1.1-3.7-3.8h2c0,1.6,1.4,1.8,1.8,1.8l0.2,0c2.2,0.4,6.3,2.2,6.3,6.5l0,0.2
			c-0.2,1.1-0.9,4.1-0.9,5.3c0,1.1,0.6,4.2,0.9,5.3l0,0.2c0,4.3-4.1,6.1-6.3,6.5l-0.2,0C72.1,70.3,70.7,70.5,70.7,72.1z"/>
	</g>
	<path d="M80,58l-1.3-0.9l-0.6,0.6H61.9l-0.6-0.6h-2.2l0.6,0.6h-1v0.6h1l-0.6,0.6h2.2l0.6-0.6h16.3l0.6,0.6L80,58z"/>
	<path class="st10" d="M59.1,59.2h-8.3c-0.8,0-1.4-0.6-1.4-1.4l0,0c0-0.8,0.6-1.4,1.4-1.4h8.3c0.8,0,1.4,0.6,1.4,1.4l0,0
		C60.5,58.6,59.9,59.2,59.1,59.2z"/>
</g>
</svg>
