<?xml version="1.0" encoding="utf-8"?>
<!-- Generator: Adobe Illustrator 17.0.0, SVG Export Plug-In . SVG Version: 6.00 Build 0)  -->
<!DOCTYPE svg PUBLIC "-//W3C//DTD SVG 1.1//EN" "http://www.w3.org/Graphics/SVG/1.1/DTD/svg11.dtd">
<svg version="1.1" id="Ebene_1" xmlns="http://www.w3.org/2000/svg" xmlns:xlink="http://www.w3.org/1999/xlink" x="0px" y="0px"
	 width="48px" height="48px" viewBox="0 0 48 48" enable-background="new 0 0 48 48" xml:space="preserve">
<path fill="#747474" d="M40,4H8C5.79,4,4,5.79,4,8v32c0,2.21,1.79,4,4,4h32c2.21,0,4-1.79,4-4V8C44,5.79,42.21,4,40,4z M16,40H8v-8
	h8V40z M16,28H8v-8h8V28z M16,16H8V8h8V16z M28,40h-8v-8h8V40z M28,28h-8v-8h8V28z M28,16h-8V8h8V16z M40,40h-8v-8h8V40z M40,28h-8
	v-8h8V28z M40,16h-8V8h8V16z"/>
</svg>
