<?xml version="1.0" encoding="utf-8"?>
<!DOCTYPE svg PUBLIC "-//W3C//DTD SVG 1.1//EN" "http://www.w3.org/Graphics/SVG/1.1/DTD/svg11.dtd">
<svg version="1.1" id="Ebene_1" xmlns="http://www.w3.org/2000/svg" xmlns:xlink="http://www.w3.org/1999/xlink" x="0px" y="0px"
	 width="24px" height="24px" viewBox="0 0 24 24" enable-background="new 0 0 24 24" xml:space="preserve">
<path fill="#757575" d="M14.306,1.782L1.782,14.306c-0.234,0.234-0.234,0.614,0,0.848l7.063,7.063c0.234,0.234,0.614,0.234,0.848,0
	L22.218,9.694c0.234-0.234,0.234-0.614,0-0.848l-7.063-7.063C14.921,1.548,14.541,1.548,14.306,1.782z M20.946,9.27L9.27,20.946
	L3.054,14.73l1.121-1.121l2.813,2.813l0.897-0.897l-2.813-2.813l1.249-1.249l1.708,1.708l0.897-0.897l-1.708-1.708l1.249-1.249
	l2.813,2.813l0.897-0.897L9.364,8.42l1.249-1.249l1.708,1.708l0.897-0.897L11.51,6.274l1.249-1.249l2.813,2.813l0.897-0.897
	l-2.813-2.813l1.073-1.073L20.946,9.27z"/>
</svg>
