<?xml version="1.0" encoding="utf-8"?>
<!DOCTYPE svg PUBLIC "-//W3C//DTD SVG 1.1//EN" "http://www.w3.org/Graphics/SVG/1.1/DTD/svg11.dtd">
<svg version="1.1" id="Ebene_1" xmlns="http://www.w3.org/2000/svg" xmlns:xlink="http://www.w3.org/1999/xlink" x="0px" y="0px"
	 width="24px" height="24px" viewBox="0 0 24 24" enable-background="new 0 0 24 24" xml:space="preserve">
<path fill="#757575" d="M21.544,19.612c-0.698-3.85-1.437-7.693-2.192-11.532c-0.248-1.262-0.975-1.805-2.289-1.836
	C16.356,6.227,15.649,6.24,14.94,6.24c0.063-2.549-1.089-4.039-3.002-3.999C10.055,2.281,8.955,3.751,9.05,6.24
	c-0.637,0-1.195-0.001-1.753,0C5.341,6.243,4.826,6.643,4.465,8.557c-0.681,3.611-1.34,7.226-1.997,10.841
	c-0.317,1.747,0.51,2.803,2.278,2.872c1.118,0.044,2.239,0.01,3.359,0.01c3.64,0,7.279,0.015,10.919-0.007
	C20.883,22.263,21.844,21.265,21.544,19.612z M12,3.563c0.656,0,1.188,0.532,1.188,1.188S12.656,5.938,12,5.938
	s-1.188-0.532-1.188-1.188S11.344,3.563,12,3.563z M15.028,16.264c0,0.461-0.076,0.872-0.229,1.231s-0.365,0.662-0.638,0.908
	c-0.273,0.245-0.601,0.433-0.984,0.562c-0.383,0.129-0.803,0.193-1.26,0.193c-0.19,0-0.402-0.021-0.635-0.061
	s-0.468-0.105-0.705-0.196s-0.463-0.209-0.679-0.353s-0.4-0.319-0.552-0.526l0.73-0.928c0.254,0.301,0.53,0.517,0.828,0.648
	c0.299,0.131,0.606,0.196,0.924,0.196c0.512,0,0.916-0.139,1.212-0.416s0.444-0.685,0.444-1.222v-0.463
	c-0.216,0.24-0.47,0.425-0.762,0.552s-0.63,0.19-1.016,0.19c-0.419,0-0.796-0.088-1.133-0.264c-0.336-0.176-0.624-0.418-0.863-0.727
	c-0.239-0.309-0.422-0.676-0.549-1.102c-0.127-0.425-0.19-0.888-0.19-1.387V12.97c0-0.521,0.063-0.997,0.19-1.429
	s0.31-0.802,0.549-1.11c0.239-0.31,0.528-0.549,0.867-0.718s0.719-0.254,1.143-0.254c0.415,0,0.772,0.071,1.073,0.213
	s0.559,0.344,0.774,0.606l0.07-0.692h1.39V16.264z"/>
<path fill="#757575" d="M12.949,10.932c-0.222-0.14-0.5-0.21-0.834-0.21c-0.279,0-0.521,0.06-0.724,0.178
	c-0.203,0.119-0.369,0.279-0.499,0.482c-0.129,0.203-0.225,0.441-0.289,0.715c-0.063,0.272-0.095,0.563-0.095,0.873v0.133
	c0,0.305,0.031,0.592,0.092,0.86c0.062,0.269,0.158,0.505,0.289,0.708s0.296,0.362,0.495,0.479s0.438,0.175,0.717,0.175
	c0.347,0,0.63-0.073,0.851-0.219c0.22-0.146,0.398-0.34,0.533-0.581v-3.021C13.35,11.262,13.171,11.071,12.949,10.932z"/>
</svg>
