<?xml version="1.0" encoding="utf-8"?>
<!DOCTYPE svg PUBLIC "-//W3C//DTD SVG 1.1//EN" "http://www.w3.org/Graphics/SVG/1.1/DTD/svg11.dtd">
<svg version="1.1" id="Ebene_1" xmlns="http://www.w3.org/2000/svg" xmlns:xlink="http://www.w3.org/1999/xlink" x="0px" y="0px"
	 width="24px" height="24px" viewBox="0 0 24 24" enable-background="new 0 0 24 24" xml:space="preserve">
<g>
	<path fill="#757575" d="M20.569,11.339c-3.702-0.032-7.404,0.009-11.106,0.045c-2.48,0.024-4.96-0.026-7.44,0.018
		c-0.076,0.001-0.151,0.004-0.227-0.001c-0.141-0.009-0.288-0.02-0.316-0.202c-0.026-0.168,0.038-0.303,0.195-0.372
		c0.196-0.086,0.399-0.154,0.598-0.234c2.468-0.984,4.964-1.894,7.513-2.64c1.632-0.477,3.313-0.743,5.008-0.915
		c0.977-0.099,1.939-0.23,2.931-0.091c1.681,0.236,2.907,1.125,3.831,2.492c0.303,0.448,0.573,0.918,0.847,1.384
		c0.219,0.374,0.157,0.473-0.284,0.483C21.602,11.319,21.085,11.328,20.569,11.339z"/>
	<path fill="#757575" d="M20.569,12.661c-3.702,0.032-7.404-0.009-11.106-0.045c-2.48-0.024-4.96,0.026-7.44-0.018
		c-0.076-0.001-0.151-0.004-0.227,0.001c-0.141,0.009-0.288,0.02-0.316,0.202c-0.026,0.168,0.038,0.303,0.195,0.372
		c0.196,0.086,0.399,0.154,0.598,0.234c2.468,0.984,4.964,1.894,7.513,2.64c1.632,0.477,3.313,0.743,5.008,0.915
		c0.977,0.099,1.939,0.23,2.931,0.091c1.681-0.236,2.907-1.125,3.831-2.492c0.303-0.448,0.573-0.918,0.847-1.384
		c0.219-0.374,0.157-0.473-0.284-0.483C21.602,12.681,21.085,12.672,20.569,12.661z"/>
</g>
</svg>
