<!--
  ~ Copyright (C) 2016 Florian Dreier
  ~
  ~ This file is part of MyTargets.
  ~
  ~ MyTargets is free software: you can redistribute it and/or modify
  ~ it under the terms of the GNU General Public License version 2
  ~ as published by the Free Software Foundation.
  ~
  ~ MyTargets is distributed in the hope that it will be useful,
  ~ but WITHOUT ANY WARRANTY; without even the implied warranty of
  ~ MERCHANTABILITY or FITNESS FOR A PARTICULAR PURPOSE.  See the
  ~ GNU General Public License for more details.
  -->

<svg xmlns="http://www.w3.org/2000/svg" xmlns:xlink="http://www.w3.org/1999/xlink" version="1.1" x="0px" y="0px" viewBox="0 0 30 30" enable-background="new 0 0 30 30" xml:space="preserve">
<path fill="#757575" d="M30,1.916L28.085,0l-6.24,6.239C19.956,4.762,17.584,3.873,15,3.873c-6.146,0-11.127,4.982-11.127,11.128  c0,2.584,0.889,4.956,2.366,6.845L0,28.086l1.916,1.916l6.239-6.24c1.889,1.478,4.261,2.367,6.845,2.367  c6.146,0,11.128-4.982,11.128-11.128c0-2.585-0.89-4.957-2.367-6.846L30,1.916z M6.84,15.001c0-4.5,3.661-8.16,8.16-8.16  c1.762,0,3.39,0.566,4.725,1.519L8.359,19.726C7.406,18.391,6.84,16.763,6.84,15.001z M23.16,15.001c0,4.5-3.66,8.16-8.16,8.16  c-1.761,0-3.39-0.567-4.725-1.52L21.64,10.275C22.593,11.611,23.16,13.239,23.16,15.001z" />
</svg>