<?xml version="1.0" encoding="utf-8"?>
<!-- Generator: Adobe Illustrator 17.0.0, SVG Export Plug-In . SVG Version: 6.00 Build 0)  -->
<!DOCTYPE svg PUBLIC "-//W3C//DTD SVG 1.1//EN" "http://www.w3.org/Graphics/SVG/1.1/DTD/svg11.dtd">
<svg version="1.1" id="Ebene_1" xmlns="http://www.w3.org/2000/svg" xmlns:xlink="http://www.w3.org/1999/xlink" x="0px" y="0px"
	 width="24px" height="24px" viewBox="0 0 24 24" enable-background="new 0 0 24 24" xml:space="preserve">
<path display="none" fill="none" d="M0,0v24h24V0H0z M21.295,22.424L2.931,1.984l1.336-1.2l18.364,20.441L21.295,22.424z"/>
<rect x="-0.958" y="10.706" transform="matrix(-0.6683 -0.7439 0.7439 -0.6683 12.6902 28.8658)" display="none" fill="none" width="27.478" height="1.796"/>
<rect x="10.321" y="-1.343" transform="matrix(0.7439 -0.6683 0.6683 0.7439 -5.4111 10.6729)" fill="#FFFFFF" width="1.796" height="27.478"/>
<path fill="#FFFFFF" d="M12,6c3.31,0,6,2.69,6,6c0,1.135-0.322,2.194-0.872,3.099l1.377,1.532C19.44,15.324,20,13.728,20,12
	c0-2.54-1.19-4.81-3.04-6.27L16,0H8L7.309,4.169l2.156,2.4C10.236,6.208,11.093,6,12,6z"/>
<path fill="#FFFFFF" d="M12,18c-3.31,0-6-2.69-6-6c0-1.751,0.758-3.324,1.957-4.422L6.629,6.1C5.017,7.558,4,9.652,4,12
	c0,2.55,1.19,4.81,3.05,6.27L8,24h8l0.96-5.73c0.117-0.093,0.224-0.198,0.336-0.297l-1.331-1.481C14.907,17.427,13.521,18,12,18z"/>
</svg>
