<?xml version="1.0" encoding="utf-8"?>
<!-- Generator: Adobe Illustrator 17.0.0, SVG Export Plug-In . SVG Version: 6.00 Build 0)  -->
<!DOCTYPE svg PUBLIC "-//W3C//DTD SVG 1.1//EN" "http://www.w3.org/Graphics/SVG/1.1/DTD/svg11.dtd">
<svg version="1.1" id="WA" xmlns="http://www.w3.org/2000/svg" xmlns:xlink="http://www.w3.org/1999/xlink" x="0px" y="0px"
	 width="1000px" height="1000px" viewBox="0 0 1000 1000" enable-background="new 0 0 1000 1000" xml:space="preserve">
<g>
	<circle fill="#2E489F" cx="500" cy="500" r="199"/>
	<circle fill="none" stroke="#FFFFFF" stroke-width="2" stroke-miterlimit="10" cx="500" cy="500" r="149.25"/>
	<circle fill="#FFFFFF" stroke="#000000" stroke-width="2" stroke-miterlimit="10" cx="500" cy="500" r="99.5"/>
	<circle fill="#FFFFFF" stroke="#000000" stroke-width="2" stroke-miterlimit="10" cx="500" cy="500" r="49.75"/>
	<g>
		<line fill="none" stroke="#221F1F" stroke-width="9" stroke-miterlimit="10" x1="524.5" y1="475.5" x2="475.5" y2="524.5"/>
		<line fill="none" stroke="#221F1F" stroke-width="9" stroke-miterlimit="10" x1="475.5" y1="475.5" x2="524.5" y2="524.5"/>
	</g>
</g>
<g>
	<circle fill="#2E489F" cx="201.5" cy="199" r="199"/>
	<circle fill="none" stroke="#FFFFFF" stroke-width="2" stroke-miterlimit="10" cx="201.5" cy="199" r="149.25"/>
	<circle fill="#FFFFFF" stroke="#000000" stroke-width="2" stroke-miterlimit="10" cx="201.5" cy="199" r="99.5"/>
	<circle fill="#FFFFFF" stroke="#000000" stroke-width="2" stroke-miterlimit="10" cx="201.5" cy="199" r="49.75"/>
	<g>
		<line fill="none" stroke="#221F1F" stroke-width="9" stroke-miterlimit="10" x1="226" y1="174.5" x2="177" y2="223.5"/>
		<line fill="none" stroke="#221F1F" stroke-width="9" stroke-miterlimit="10" x1="177" y1="174.5" x2="226" y2="223.5"/>
	</g>
</g>
<g>
	<circle fill="#2E489F" cx="201.5" cy="798.5" r="199"/>
	<circle fill="none" stroke="#FFFFFF" stroke-width="2" stroke-miterlimit="10" cx="201.5" cy="798.5" r="149.25"/>
	<circle fill="#FFFFFF" stroke="#000000" stroke-width="2" stroke-miterlimit="10" cx="201.5" cy="798.5" r="99.5"/>
	<circle fill="#FFFFFF" stroke="#000000" stroke-width="2" stroke-miterlimit="10" cx="201.5" cy="798.5" r="49.75"/>
	<g>
		<line fill="none" stroke="#221F1F" stroke-width="9" stroke-miterlimit="10" x1="226" y1="774" x2="177" y2="823"/>
		<line fill="none" stroke="#221F1F" stroke-width="9" stroke-miterlimit="10" x1="177" y1="774" x2="226" y2="823"/>
	</g>
</g>
<g>
	<circle fill="#2E489F" cx="798.5" cy="798.5" r="199"/>
	<circle fill="none" stroke="#FFFFFF" stroke-width="2" stroke-miterlimit="10" cx="798.5" cy="798.5" r="149.25"/>
	<circle fill="#FFFFFF" stroke="#000000" stroke-width="2" stroke-miterlimit="10" cx="798.5" cy="798.5" r="99.5"/>
	<circle fill="#FFFFFF" stroke="#000000" stroke-width="2" stroke-miterlimit="10" cx="798.5" cy="798.5" r="49.75"/>
	<g>
		<line fill="none" stroke="#221F1F" stroke-width="9" stroke-miterlimit="10" x1="823" y1="774" x2="774" y2="823"/>
		<line fill="none" stroke="#221F1F" stroke-width="9" stroke-miterlimit="10" x1="774" y1="774" x2="823" y2="823"/>
	</g>
</g>
<g>
	<circle fill="#2E489F" cx="798.5" cy="199" r="199"/>
	<circle fill="none" stroke="#FFFFFF" stroke-width="2" stroke-miterlimit="10" cx="798.5" cy="199" r="149.25"/>
	<circle fill="#FFFFFF" stroke="#000000" stroke-width="2" stroke-miterlimit="10" cx="798.5" cy="199" r="99.5"/>
	<circle fill="#FFFFFF" stroke="#000000" stroke-width="2" stroke-miterlimit="10" cx="798.5" cy="199" r="49.75"/>
	<g>
		<line fill="none" stroke="#221F1F" stroke-width="9" stroke-miterlimit="10" x1="823" y1="174.5" x2="774" y2="223.5"/>
		<line fill="none" stroke="#221F1F" stroke-width="9" stroke-miterlimit="10" x1="774" y1="174.5" x2="823" y2="223.5"/>
	</g>
</g>
<image display="none" overflow="visible" width="1200" height="1200" xlink:href="../../../../../../../../Desktop/ArcherZUpshot_1.818/assets/faces/nfaaIndoor5Spot@4x.png"  transform="matrix(0.8333 0 0 0.8333 0 0)">
</image>
</svg>
