<?xml version="1.0" encoding="utf-8"?>
<!-- Generator: Adobe Illustrator 17.0.0, SVG Export Plug-In . SVG Version: 6.00 Build 0)  -->
<!DOCTYPE svg PUBLIC "-//W3C//DTD SVG 1.1//EN" "http://www.w3.org/Graphics/SVG/1.1/DTD/svg11.dtd">
<svg version="1.1" id="Ebene_1" xmlns="http://www.w3.org/2000/svg" xmlns:xlink="http://www.w3.org/1999/xlink" x="0px" y="0px"
	 width="1000px" height="1000px" viewBox="0 0 1000 1000" enable-background="new 0 0 1000 1000" xml:space="preserve">
<circle fill="#9F7800" stroke="#686868" stroke-width="5" stroke-miterlimit="10" cx="500" cy="500" r="500"/>
<path fill="#DBDBDA" stroke="#000000" stroke-width="3" stroke-miterlimit="10" d="M296.724,162.855
	c38.343,0.349,76.52,3.21,114.615,7.429c45.135,4.998,89.929,12.092,134.474,20.93c57.649,11.437,113.524,28.757,168.228,50.007
	c44.355,17.23,87.146,37.632,126.912,63.985c37.863,25.092,71.607,54.56,96.713,92.875c26.043,39.745,40.237,83.343,40.137,131.051
	c-0.074,35.493-10.346,68.593-25.781,100.243c-19.055,39.073-44.959,73.311-74.722,104.709
	c-57.993,61.18-125.646,109.496-199.9,148.837c-40.559,21.489-82.616,39.432-126.987,51.593
	c-22.086,6.054-44.501,10.182-67.44,11.073c-25.669,0.995-49.104-7.053-71.784-17.945c-40.526-19.461-73.686-48.288-103.105-81.749
	c-34.337-39.056-61.913-82.672-85.541-128.817c-45.577-89.013-76.758-183.059-97.321-280.767
	c-7.549-35.872-13.288-72.024-16.403-108.552c-2.358-27.654-3.466-55.371-0.127-83.023c1.08-8.943,3.126-17.801,5.216-26.582
	c2.783-11.687,9.99-20.258,19.899-26.844c15.962-10.608,33.877-16.045,52.339-19.973c27.9-5.936,56.213-8.009,84.67-8.46
	C279.451,162.739,288.089,162.855,296.724,162.855z"/>
<circle fill="#006CC4" stroke="#000000" stroke-width="4" stroke-miterlimit="10" cx="564.375" cy="577.813" r="208.938"/>
<circle fill="#FF000D" stroke="#000000" stroke-width="3" stroke-miterlimit="10" cx="563.447" cy="576.566" r="62"/>
<circle fill="none" stroke="#000000" stroke-width="3" stroke-miterlimit="10" cx="563.447" cy="576.566" r="26.698"/>
</svg>
