<?xml version="1.0" encoding="utf-8"?>
<!-- Generator: Adobe Illustrator 17.0.0, SVG Export Plug-In . SVG Version: 6.00 Build 0)  -->
<!DOCTYPE svg PUBLIC "-//W3C//DTD SVG 1.1//EN" "http://www.w3.org/Graphics/SVG/1.1/DTD/svg11.dtd">
<svg version="1.1" id="WA" xmlns="http://www.w3.org/2000/svg" xmlns:xlink="http://www.w3.org/1999/xlink" x="0px" y="0px"
	 width="1000px" height="1000px" viewBox="0 0 1000 1000" enable-background="new 0 0 1000 1000" xml:space="preserve">
<image overflow="visible" width="1200" height="1200" xlink:href="../../../../../../../../Desktop/ArcherZUpshot_1.818/assets/faces/fita5Ring3Spot@4x.png"  transform="matrix(0.8333 0 0 0.8333 0 0)">
</image>
<g>
	<circle fill="#0000FF" stroke="#221F1F" stroke-width="4" stroke-miterlimit="10" cx="239.906" cy="750" r="238.991"/>
	<circle fill="#E30613" stroke="#221F1F" stroke-width="4" stroke-miterlimit="10" cx="239.906" cy="750" r="191.193"/>
	<circle fill="none" stroke="#221F1F" stroke-width="4" stroke-miterlimit="10" cx="239.906" cy="750" r="143.395"/>
	<circle fill="#F6EB0F" stroke="#221F1F" stroke-width="4" stroke-miterlimit="10" cx="239.906" cy="750" r="95.597"/>
	<circle fill="none" stroke="#221F1F" stroke-width="4" stroke-miterlimit="10" cx="239.906" cy="750" r="47.798"/>
	<circle fill="none" stroke="#221F1F" stroke-width="4" stroke-miterlimit="10" cx="239.906" cy="750" r="23.899"/>
	
		<line fill="none" stroke="#221F1F" stroke-width="2" stroke-miterlimit="10" x1="239.906" y1="742.092" x2="239.906" y2="751.652"/>
	
		<line fill="none" stroke="#221F1F" stroke-width="2" stroke-miterlimit="10" x1="235.126" y1="750" x2="244.685" y2="750"/>
</g>
<g>
	<circle fill="#0000FF" stroke="#221F1F" stroke-width="4" stroke-miterlimit="10" cx="758.239" cy="750" r="238.991"/>
	<circle fill="#E30613" stroke="#221F1F" stroke-width="4" stroke-miterlimit="10" cx="758.239" cy="750" r="191.193"/>
	<circle fill="none" stroke="#221F1F" stroke-width="4" stroke-miterlimit="10" cx="758.239" cy="750" r="143.395"/>
	<circle fill="#F6EB0F" stroke="#221F1F" stroke-width="4" stroke-miterlimit="10" cx="758.239" cy="750" r="95.597"/>
	<circle fill="none" stroke="#221F1F" stroke-width="4" stroke-miterlimit="10" cx="758.239" cy="750" r="47.798"/>
	<circle fill="none" stroke="#221F1F" stroke-width="4" stroke-miterlimit="10" cx="758.239" cy="750" r="23.899"/>
	
		<line fill="none" stroke="#221F1F" stroke-width="2" stroke-miterlimit="10" x1="758.239" y1="742.092" x2="758.239" y2="751.652"/>
	
		<line fill="none" stroke="#221F1F" stroke-width="2" stroke-miterlimit="10" x1="753.459" y1="750" x2="763.019" y2="750"/>
</g>
<g>
	<circle fill="#0000FF" stroke="#221F1F" stroke-width="4" stroke-miterlimit="10" cx="500" cy="250" r="238.991"/>
	<circle fill="#E30613" stroke="#221F1F" stroke-width="4" stroke-miterlimit="10" cx="500" cy="250" r="191.193"/>
	<circle fill="none" stroke="#221F1F" stroke-width="4" stroke-miterlimit="10" cx="500" cy="250" r="143.395"/>
	<circle fill="#F6EB0F" stroke="#221F1F" stroke-width="4" stroke-miterlimit="10" cx="500" cy="250" r="95.597"/>
	<circle fill="none" stroke="#221F1F" stroke-width="4" stroke-miterlimit="10" cx="500" cy="250" r="47.798"/>
	<circle fill="none" stroke="#221F1F" stroke-width="4" stroke-miterlimit="10" cx="500" cy="250" r="23.899"/>
	
		<line fill="none" stroke="#221F1F" stroke-width="2" stroke-miterlimit="10" x1="500" y1="244.759" x2="500" y2="254.318"/>
	
		<line fill="none" stroke="#221F1F" stroke-width="2" stroke-miterlimit="10" x1="494.126" y1="250" x2="503.685" y2="250"/>
</g>
</svg>
