<?xml version="1.0" encoding="utf-8"?>
<!-- Generator: Adobe Illustrator 17.0.0, SVG Export Plug-In . SVG Version: 6.00 Build 0)  -->
<!DOCTYPE svg PUBLIC "-//W3C//DTD SVG 1.1//EN" "http://www.w3.org/Graphics/SVG/1.1/DTD/svg11.dtd">
<svg version="1.1" id="WA" xmlns="http://www.w3.org/2000/svg" xmlns:xlink="http://www.w3.org/1999/xlink" x="0px" y="0px"
	 width="1000px" height="1000px" viewBox="0 0 1000 1000" enable-background="new 0 0 1000 1000" xml:space="preserve">
<image overflow="visible" width="1200" height="1200" xlink:href="../../../../../../../../Desktop/ArcherZUpshot_1.818/assets/faces/fita5RingVertical3Spot@4x.png"  transform="matrix(0.8333 0 0 0.8333 0 0)">
</image>
<g>
	<circle fill="#0000FF" stroke="#221F1F" stroke-width="4" stroke-miterlimit="10" cx="500" cy="160.75" r="160.75"/>
	<circle fill="#E30613" stroke="#221F1F" stroke-width="4" stroke-miterlimit="10" cx="500" cy="160.75" r="128.6"/>
	<circle fill="none" stroke="#221F1F" stroke-width="4" stroke-miterlimit="10" cx="500" cy="160.75" r="96.45"/>
	<circle fill="#F6EB0F" stroke="#221F1F" stroke-width="4" stroke-miterlimit="10" cx="500" cy="160.75" r="64.3"/>
	<circle fill="none" stroke="#221F1F" stroke-width="4" stroke-miterlimit="10" cx="500" cy="160.75" r="32.15"/>
	<circle fill="none" stroke="#221F1F" stroke-width="4" stroke-miterlimit="10" cx="500" cy="160.75" r="16.075"/>
	<line fill="none" stroke="#221F1F" stroke-width="2" stroke-miterlimit="10" x1="500" y1="157.535" x2="500" y2="163.965"/>
	<line fill="none" stroke="#221F1F" stroke-width="2" stroke-miterlimit="10" x1="496.785" y1="160.75" x2="503.215" y2="160.75"/>
</g>
<g>
	<circle fill="#0000FF" stroke="#221F1F" stroke-width="4" stroke-miterlimit="10" cx="503.215" cy="500" r="160.75"/>
	<circle fill="#E30613" stroke="#221F1F" stroke-width="4" stroke-miterlimit="10" cx="503.215" cy="500" r="128.6"/>
	<circle fill="none" stroke="#221F1F" stroke-width="4" stroke-miterlimit="10" cx="503.215" cy="500" r="96.45"/>
	<circle fill="#F6EB0F" stroke="#221F1F" stroke-width="4" stroke-miterlimit="10" cx="503.215" cy="500" r="64.3"/>
	<circle fill="none" stroke="#221F1F" stroke-width="4" stroke-miterlimit="10" cx="503.215" cy="500" r="32.15"/>
	<circle fill="none" stroke="#221F1F" stroke-width="4" stroke-miterlimit="10" cx="503.215" cy="500" r="16.075"/>
	
		<line fill="none" stroke="#221F1F" stroke-width="2" stroke-miterlimit="10" x1="503.215" y1="496.785" x2="503.215" y2="503.215"/>
	<line fill="none" stroke="#221F1F" stroke-width="2" stroke-miterlimit="10" x1="500" y1="500" x2="506.43" y2="500"/>
</g>
<g>
	<circle fill="#0000FF" stroke="#221F1F" stroke-width="4" stroke-miterlimit="10" cx="500" cy="839.417" r="160.75"/>
	<circle fill="#E30613" stroke="#221F1F" stroke-width="4" stroke-miterlimit="10" cx="500" cy="839.417" r="128.6"/>
	<circle fill="none" stroke="#221F1F" stroke-width="4" stroke-miterlimit="10" cx="500" cy="839.417" r="96.45"/>
	<circle fill="#F6EB0F" stroke="#221F1F" stroke-width="4" stroke-miterlimit="10" cx="500" cy="839.417" r="64.3"/>
	<circle fill="none" stroke="#221F1F" stroke-width="4" stroke-miterlimit="10" cx="500" cy="839.417" r="32.15"/>
	<circle fill="none" stroke="#221F1F" stroke-width="4" stroke-miterlimit="10" cx="500" cy="839.417" r="16.075"/>
	<line fill="none" stroke="#221F1F" stroke-width="2" stroke-miterlimit="10" x1="500" y1="836.202" x2="500" y2="842.632"/>
	
		<line fill="none" stroke="#221F1F" stroke-width="2" stroke-miterlimit="10" x1="496.785" y1="839.417" x2="503.215" y2="839.417"/>
</g>
</svg>
