<?xml version="1.0" encoding="utf-8"?>
<!-- Generator: Adobe Illustrator 17.0.0, SVG Export Plug-In . SVG Version: 6.00 Build 0)  -->
<!DOCTYPE svg PUBLIC "-//W3C//DTD SVG 1.1//EN" "http://www.w3.org/Graphics/SVG/1.1/DTD/svg11.dtd">
<svg version="1.1" id="Ebene_1" xmlns="http://www.w3.org/2000/svg" xmlns:xlink="http://www.w3.org/1999/xlink" x="0px" y="0px"
	 width="24px" height="24px" viewBox="0 0 24 24" enable-background="new 0 0 24 24" xml:space="preserve">
<polygon fill="#757575" points="14.049,9.948 13.777,11.419 15.663,13.305 16.285,9.951 19.474,9.951 19.474,7.82 16.688,7.82 
	17.732,2.246 15.483,2.246 14.44,7.82 11.439,7.82 12.484,2.246 10.245,2.246 9.357,6.999 12.306,9.948 "/>
<path fill="#757575" d="M20.091,20.108L3.861,3.878l-1.27,1.27l2.954,2.956v1.844h1.843l1.189,1.19l-0.557,3.003H4.526v2.117h3.095
	l-1.017,5.494h2.236l1.017-5.494h3.015l-1.02,5.496h2.238l0.797-4.302l3.924,3.926L20.091,20.108z M10.259,14.141l0.206-1.114
	l1.113,1.114H10.259z"/>
<polygon fill="#757575" points="18.469,14.143 16.501,14.143 18.469,16.111 "/>
</svg>
