<?xml version="1.0" encoding="utf-8"?>
<!-- Generator: Adobe Illustrator 17.0.0, SVG Export Plug-In . SVG Version: 6.00 Build 0)  -->
<!DOCTYPE svg PUBLIC "-//W3C//DTD SVG 1.1//EN" "http://www.w3.org/Graphics/SVG/1.1/DTD/svg11.dtd">
<svg version="1.1" id="Ebene_1" xmlns="http://www.w3.org/2000/svg" xmlns:xlink="http://www.w3.org/1999/xlink" x="0px" y="0px"
	 width="1280px" height="1280px" viewBox="0 0 1280 1280" enable-background="new 0 0 1280 1280" xml:space="preserve">
<g>
	<path fill="#000099" d="M867.007,39.737c45.981-0.133,79.208,33.247,79.136,79.502c-0.07,44.968-32.175,77.79-76.738,78.451
		c-46.177,0.686-80.76-32.389-81.247-77.704C787.671,74.617,821.813,39.868,867.007,39.737z"/>
	<path fill="#000099" d="M785.228,283.071c-31.068,0.018-62.137-0.164-93.203,0.081c-21.461,0.169-42.285-2.711-43.11-29.429
		c-0.809-26.192,20.882-32.976,41.084-33.983c39.849-1.986,79.852-0.94,119.792-1.042c25.519-0.065,51.04,0.15,76.559,0.072
		c20.354-0.062,35.541,6.243,34.747,29.939c-0.76,22.658-13.071,34.351-36.007,34.346
		C851.801,283.048,818.515,283.053,785.228,283.071z"/>
	<path fill="#000099" d="M987.849,336.458c60.831,61.336,118.051,119.031,175.098,176.551
		c157.895-153.48,129.335-409.132,0.711-516.264c-71.043,71.378-142.485,142.73-213.099,214.891
		c-5.809,5.936-8.647,17.467-8.348,26.244c1.613,47.284-16.559,67.814-63.255,68.348c-33.112,0.378-66.233,0.073-103.687,0.073
		c0,64.052,0.662,122.809-0.206,181.543c-0.72,48.698,1.59,98.137-5.993,145.889c-14.935,94.05-36.728,186.99-53.743,280.741
		c-6.483,35.722,6.276,53.909,33.306,57.956c28.202,4.223,43.924-8.536,51.956-42.297c1.793-7.539,3.397-15.128,4.901-22.731
		c18.051-91.293,35.612-182.689,54.807-273.741c1.896-8.995,13.743-15.891,20.971-23.762c6.936,7.783,17.178,14.49,20.131,23.569
		c6.465,19.882,9.388,40.935,13.485,61.565c15.755,79.323,31.081,158.733,47.247,237.971c6.473,31.728,25.887,44.83,54.776,39.183
		c24.812-4.85,37.44-26.997,31.836-56.102c-2.304-11.965-4.788-23.899-7.407-35.799c-37.003-168.095-69.794-336.647-55.997-510.317
		C986.09,360.514,986.759,351.05,987.849,336.458z M1161.831,44.012c39.015,45.355,63.226,104.322,72.256,176.303
		c-87.497,0-171.073,0-253.566,0C1040.711,161.787,1100.812,103.346,1161.831,44.012z M980.665,295.257
		c2.458-3.192,4.916-6.383,7.374-9.574c81.118,0,162.235,0,245.329,0c-6.886,69.694-32.421,128.886-78.725,184.882
		C1094.828,410.67,1036.345,354.289,980.665,295.257z"/>
</g>
<g>
	<path fill="#FF9100" d="M581.092,170.943c45.981-0.133,79.208,33.247,79.136,79.502c-0.07,44.968-32.175,77.79-76.738,78.451
		c-46.177,0.686-80.76-32.389-81.247-77.704C501.756,205.823,535.898,171.074,581.092,170.943z"/>
	<path fill="#FF9100" d="M499.313,414.277c-31.068,0.018-62.137-0.164-93.203,0.081c-21.461,0.169-42.285-2.711-43.11-29.429
		c-0.809-26.192,20.882-32.976,41.084-33.983c39.849-1.986,79.852-0.94,119.792-1.042c25.519-0.065,51.04,0.15,76.559,0.072
		c20.354-0.062,35.541,6.243,34.747,29.939c-0.76,22.658-13.071,34.351-36.007,34.346
		C565.886,414.254,532.6,414.259,499.313,414.277z"/>
	<path fill="#FF9100" d="M701.935,467.664C762.766,529,819.986,586.695,877.032,644.215
		c157.895-153.48,129.335-409.132,0.711-516.264c-71.043,71.378-142.485,142.73-213.099,214.891
		c-5.809,5.936-8.647,17.467-8.348,26.244c1.613,47.284-16.559,67.814-63.255,68.348c-33.112,0.378-66.232,0.073-103.687,0.073
		c0,64.052,0.662,122.809-0.206,181.543c-0.72,48.698,1.59,98.137-5.993,145.889c-14.935,94.05-36.728,186.99-53.743,280.741
		c-6.483,35.722,6.276,53.909,33.306,57.956c28.202,4.223,43.924-8.536,51.956-42.297c1.793-7.539,3.397-15.128,4.901-22.731
		c18.051-91.293,35.612-182.689,54.807-273.741c1.896-8.995,13.743-15.891,20.971-23.761c6.936,7.783,17.178,14.49,20.131,23.569
		c6.465,19.882,9.388,40.935,13.485,61.565c15.755,79.323,31.081,158.733,47.247,237.971c6.473,31.728,25.887,44.83,54.776,39.183
		c24.812-4.85,37.44-26.997,31.836-56.102c-2.304-11.965-4.788-23.899-7.407-35.799c-37.002-168.095-69.794-336.647-55.997-510.317
		C700.175,491.72,700.844,482.256,701.935,467.664z M875.916,175.218c39.015,45.355,63.227,104.322,72.256,176.303
		c-87.496,0-171.073,0-253.566,0C754.796,292.993,814.897,234.552,875.916,175.218z M694.75,426.463
		c2.458-3.192,4.916-6.383,7.374-9.574c81.117,0,162.235,0,245.329,0c-6.886,69.694-32.421,128.886-78.725,184.882
		C808.914,541.876,750.43,485.495,694.75,426.463z"/>
</g>
<g>
	<g>
		<path fill="#259B24" d="M237.652,344.599c45.981-0.133,79.208,33.247,79.136,79.502c-0.07,44.968-32.175,77.79-76.738,78.451
			c-46.177,0.686-80.76-32.389-81.247-77.704C158.316,379.479,192.458,344.73,237.652,344.599z"/>
		<path fill="#259B24" d="M155.873,587.933c-31.068,0.018-62.137-0.164-93.203,0.081c-21.461,0.169-42.285-2.711-43.11-29.429
			c-0.809-26.192,20.882-32.976,41.084-33.983c39.849-1.987,79.852-0.94,119.792-1.042c25.519-0.065,51.04,0.15,76.559,0.072
			c20.354-0.062,35.541,6.243,34.747,29.939c-0.76,22.658-13.071,34.351-36.007,34.346
			C222.446,587.91,189.16,587.915,155.873,587.933z"/>
		<path fill="#259B24" d="M358.494,641.319c60.831,61.336,118.051,119.031,175.098,176.551
			c157.895-153.48,129.335-409.132,0.711-516.264c-71.043,71.378-142.485,142.73-213.099,214.891
			c-5.809,5.936-8.647,17.467-8.348,26.244c1.613,47.284-16.559,67.814-63.255,68.348c-33.112,0.378-66.233,0.073-103.687,0.073
			c0,64.052,0.662,122.809-0.206,181.543c-0.72,48.698,1.59,98.137-5.993,145.889c-14.935,94.05-36.728,186.99-53.743,280.741
			c-6.483,35.722,6.276,53.909,33.306,57.956c28.202,4.223,43.924-8.536,51.956-42.297c1.793-7.539,3.397-15.128,4.901-22.731
			c18.051-91.293,35.612-182.689,54.807-273.741c1.896-8.995,13.743-15.891,20.971-23.762c6.936,7.783,17.178,14.49,20.131,23.569
			c6.465,19.882,9.388,40.935,13.485,61.565c15.755,79.323,31.081,158.733,47.247,237.971c6.473,31.728,25.887,44.83,54.776,39.183
			c24.811-4.85,37.44-26.997,31.836-56.102c-2.304-11.965-4.788-23.899-7.407-35.799c-37.002-168.095-69.794-336.647-55.997-510.317
			C356.735,665.375,357.404,655.912,358.494,641.319z M532.476,348.874c39.015,45.355,63.226,104.322,72.256,176.303
			c-87.497,0-171.073,0-253.566,0C411.356,466.649,471.457,408.208,532.476,348.874z M351.31,600.118
			c2.458-3.192,4.916-6.383,7.374-9.574c81.117,0,162.235,0,245.329,0c-6.886,69.694-32.421,128.886-78.725,184.882
			C465.473,715.531,406.99,659.151,351.31,600.118z"/>
	</g>
</g>
</svg>
