<?xml version="1.0" encoding="utf-8"?>
<!-- Generator: Adobe Illustrator 17.0.0, SVG Export Plug-In . SVG Version: 6.00 Build 0)  -->
<!DOCTYPE svg PUBLIC "-//W3C//DTD SVG 1.1//EN" "http://www.w3.org/Graphics/SVG/1.1/DTD/svg11.dtd">
<svg version="1.1" id="Ebene_1" xmlns="http://www.w3.org/2000/svg" xmlns:xlink="http://www.w3.org/1999/xlink" x="0px" y="0px"
	 width="24px" height="24px" viewBox="0 0 24 24" enable-background="new 0 0 24 24" xml:space="preserve">
<path d="M7,8.86v0.19L6.73,8.77C6.82,8.81,6.91,8.84,7,8.86z"/>
<path fill="#757575" d="M2.86,2.36L1.59,3.64l2.62,2.62C4.6,7.45,5.55,8.38,6.73,8.77C6.82,8.81,6.91,8.84,7,8.86V10H4
	c0,1.86,1.28,3.41,3,3.86V15H4c0,1.86,1.28,3.41,3,3.86V20c0,0.55,0.45,1,1,1h8c0.55,0,1-0.45,1-1v-0.96l3.03,3.03l1.27-1.27
	L2.86,2.36z M11.95,14c-1.07-0.03-1.92-0.89-1.95-1.95L11.95,14z M12,19c-1.11,0-2-0.9-2-2s0.89-2,2-2c1.1,0,2,0.9,2,2
	S13.11,19,12,19z"/>
<path fill="#757575" d="M20,15h-2.003l1.635,1.635C19.861,16.135,20,15.586,20,15z"/>
<path fill="#757575" d="M10,7c0-1.11,0.89-2,2-2c1.1,0,2,0.89,2,2c0,1.1-0.89,2-2,2c-0.001,0-0.002,0-0.003,0L17,14.003V13.86
	c1.72-0.45,3-2,3-3.86h-3V8.86c1.72-0.45,3-2,3-3.86h-3V4c0-0.55-0.45-1-1-1H8C7.45,3,7,3.45,7,4v0.003l3,3C10,7.002,10,7.001,10,7z
	"/>
</svg>
