<?xml version="1.0" encoding="utf-8"?>
<!-- Generator: Adobe Illustrator 17.0.0, SVG Export Plug-In . SVG Version: 6.00 Build 0)  -->
<!DOCTYPE svg PUBLIC "-//W3C//DTD SVG 1.1//EN" "http://www.w3.org/Graphics/SVG/1.1/DTD/svg11.dtd">
<svg version="1.1" id="Ebene_2" xmlns="http://www.w3.org/2000/svg" xmlns:xlink="http://www.w3.org/1999/xlink" x="0px" y="0px"
	 width="122px" height="122px" viewBox="-12.5 -15.375 122 122" enable-background="new -12.5 -15.375 122 122"
	 xml:space="preserve">
<path fill="#ADADAD" d="M62.683,34.616c-4.25-23.75-41.25-21.5-40,6.5c-24.5,0.5-17.5,31.75-3.5,31.75c17,0,55.25-0.5,55.25-0.5
	C101.433,66.616,91.183,23.366,62.683,34.616z"/>
<path d="M63.047,34.679c-4.25-23.75-41.25-21.5-40,6.5c-24.5,0.5-17.5,31.75-3.5,31.75c17,0,55.25-0.5,55.25-0.5
	C101.797,66.679,91.547,23.429,63.047,34.679z M74.512,69.932c-3.355,0.043-38.896,0.496-54.965,0.496
	c-5.765,0-10.148-7.434-10.216-14.08c-0.038-3.724,1.227-12.414,13.767-12.67l2.561-0.052l-0.114-2.559
	c-0.271-6.069,1.422-11.198,4.897-14.832c3.253-3.401,7.988-5.352,12.993-5.352c6.737,0,15.271,3.728,17.151,14.235l0.538,3.006
	l2.841-1.122c2.831-1.118,5.559-1.684,8.105-1.684c9.753,0,15.054,8.152,15.852,15.727C88.678,58.229,85.611,67.449,74.512,69.932z"
	/>
</svg>
