<?xml version="1.0" encoding="utf-8"?>
<!-- Generator: Adobe Illustrator 17.0.0, SVG Export Plug-In . SVG Version: 6.00 Build 0)  -->
<!DOCTYPE svg PUBLIC "-//W3C//DTD SVG 1.1//EN" "http://www.w3.org/Graphics/SVG/1.1/DTD/svg11.dtd">
<svg version="1.1" id="Ebene_2" xmlns="http://www.w3.org/2000/svg" xmlns:xlink="http://www.w3.org/1999/xlink" x="0px" y="0px"
	 width="122px" height="122px" viewBox="-12.5 -15.375 122 122" enable-background="new -12.5 -15.375 122 122"
	 xml:space="preserve">
<path fill="#ADADAD" d="M63.25,21.75C59-2,22,0.25,23.25,28.25C-1.25,28.75,5.75,60,19.75,60c17,0,55.25-0.5,55.25-0.5
	C102,53.75,91.75,10.5,63.25,21.75z"/>
<path fill="none" stroke="#0000CC" stroke-width="3.5" stroke-linecap="round" d="M57,77.5"/>
<path fill="none" stroke="#0000CC" stroke-width="3.5" stroke-linecap="round" d="M51.75,82.75"/>
<line fill="none" stroke="#0000CC" stroke-width="3.5" stroke-linecap="round" x1="62.5" y1="72.25" x2="67.75" y2="67"/>
<line fill="none" stroke="#0000CC" stroke-width="3.5" stroke-linecap="round" x1="41.917" y1="80.667" x2="47.167" y2="75.417"/>
<line fill="none" stroke="#0000CC" stroke-width="3.5" stroke-linecap="round" x1="23.917" y1="72.417" x2="29.167" y2="67.167"/>
<path d="M63.083,21.75c-4.25-23.75-41.25-21.5-40,6.5c-24.5,0.5-17.5,31.75-3.5,31.75c17,0,55.25-0.5,55.25-0.5
	C101.833,53.75,91.583,10.5,63.083,21.75z M74.548,57.004C71.193,57.047,35.652,57.5,19.583,57.5
	c-5.765,0-10.148-7.434-10.216-14.08c-0.038-3.725,1.228-12.415,13.767-12.671l2.561-0.052l-0.114-2.559
	c-0.271-6.069,1.422-11.198,4.897-14.832c3.253-3.401,7.988-5.352,12.993-5.352c6.737,0,15.271,3.728,17.151,14.235l0.538,3.006
	l2.841-1.122c2.831-1.118,5.559-1.684,8.105-1.684c9.753,0,15.054,8.152,15.852,15.727C88.714,45.301,85.647,54.521,74.548,57.004z"
	/>
</svg>
