<?xml version="1.0" encoding="utf-8"?>
<!-- Generator: Adobe Illustrator 17.0.0, SVG Export Plug-In . SVG Version: 6.00 Build 0)  -->
<!DOCTYPE svg PUBLIC "-//W3C//DTD SVG 1.1//EN" "http://www.w3.org/Graphics/SVG/1.1/DTD/svg11.dtd">
<svg version="1.1" id="Ebene_2" xmlns="http://www.w3.org/2000/svg" xmlns:xlink="http://www.w3.org/1999/xlink" x="0px" y="0px"
	 width="122px" height="122px" viewBox="7.959 -10.542 122 122" enable-background="new 7.959 -10.542 122 122"
	 xml:space="preserve">
<g>
	
		<line fill="none" stroke="#FFFF00" stroke-width="3" stroke-linecap="round" stroke-miterlimit="10" x1="76.166" y1="47.701" x2="89.725" y2="47.701"/>
	
		<line fill="none" stroke="#FFFF00" stroke-width="3" stroke-linecap="round" stroke-miterlimit="10" x1="51.559" y1="23.094" x2="51.559" y2="9.534"/>
	
		<line fill="none" stroke="#FFFF00" stroke-width="3" stroke-linecap="round" stroke-miterlimit="10" x1="68.959" y1="30.301" x2="78.547" y2="20.713"/>
	
		<line fill="none" stroke="#FFFF00" stroke-width="3" stroke-linecap="round" stroke-miterlimit="10" x1="78.547" y1="74.689" x2="68.959" y2="65.101"/>
	
		<line fill="none" stroke="#FFFF00" stroke-width="3" stroke-linecap="round" stroke-miterlimit="10" x1="34.159" y1="30.301" x2="24.571" y2="20.713"/>
	
		<line fill="none" stroke="#FFFF00" stroke-width="3" stroke-linecap="round" stroke-miterlimit="10" x1="13.392" y1="47.701" x2="26.993" y2="47.701"/>
	
		<line fill="none" stroke="#FFFF00" stroke-width="3" stroke-linecap="round" stroke-miterlimit="10" x1="24.571" y1="74.689" x2="34.159" y2="65.101"/>
	
		<line fill="none" stroke="#FFFF00" stroke-width="3" stroke-linecap="round" stroke-miterlimit="10" x1="51.559" y1="85.868" x2="51.559" y2="72.267"/>
</g>
<g>
	<path fill="#ADADAD" d="M97.059,53.118c-4.25-23.75-41.25-21.5-40,6.5c-24.5,0.5-17.5,31.75-3.5,31.75c17,0,55.25-0.5,55.25-0.5
		C135.809,85.118,125.559,41.868,97.059,53.118z"/>
</g>
<path fill="none" d="M51.559,66.321c-1.657,0-3.256-0.237-4.785-0.644c-3.012,2.911-3.454,6.892-3.431,9.112
	c0.068,6.646,4.451,14.079,10.216,14.079c16.069,0,51.609-0.453,54.965-0.496c11.099-2.483,14.166-11.703,13.41-18.886
	c-0.798-7.574-6.099-15.727-15.852-15.727c-2.547,0-5.274,0.566-8.105,1.684l-2.841,1.122l-0.538-3.006
	c-1.88-10.507-10.414-14.235-17.151-14.235c-2.99,0-5.876,0.71-8.415,1.995c0.729,1.994,1.147,4.137,1.147,6.383
	C70.178,57.984,61.842,66.321,51.559,66.321z"/>
<path fill="#FFFF00" d="M54.543,57.272c0.198-6.415,2.352-11.927,6.297-16.053c1.684-1.761,3.673-3.215,5.858-4.331
	c-3.378-4.72-8.892-7.807-15.139-7.807c-10.283,0-18.62,8.336-18.62,18.62c0,6.774,3.629,12.684,9.037,15.942
	C44.536,60.391,48.583,57.91,54.543,57.272z"/>
<g>
	<path d="M43.709,61.796c-4.939-2.758-8.291-8.032-8.291-14.079c0-8.889,7.231-16.12,16.12-16.12c5.315,0,10.023,2.597,12.961,6.576
		c0.7-0.463,1.428-0.885,2.178-1.269c-3.378-4.72-8.892-7.807-15.139-7.807c-10.283,0-18.62,8.336-18.62,18.62
		c0,6.774,3.629,12.684,9.037,15.942C42.473,63.001,43.065,62.382,43.709,61.796z"/>
	<g>
		
			<line fill="none" stroke="#000000" stroke-width="3" stroke-linecap="round" stroke-miterlimit="10" x1="51.538" y1="23.109" x2="51.538" y2="9.55"/>
		
			<line fill="none" stroke="#000000" stroke-width="3" stroke-linecap="round" stroke-miterlimit="10" x1="68.938" y1="30.317" x2="78.526" y2="20.729"/>
		
			<line fill="none" stroke="#000000" stroke-width="3" stroke-linecap="round" stroke-miterlimit="10" x1="34.138" y1="30.317" x2="24.55" y2="20.729"/>
		
			<line fill="none" stroke="#000000" stroke-width="3" stroke-linecap="round" stroke-miterlimit="10" x1="13.371" y1="47.717" x2="26.972" y2="47.717"/>
		
			<line fill="none" stroke="#000000" stroke-width="3" stroke-linecap="round" stroke-miterlimit="10" x1="24.55" y1="74.705" x2="34.138" y2="65.117"/>
	</g>
	<path d="M97.038,53.133c-4.25-23.75-41.25-21.5-40,6.5c-24.5,0.5-17.5,31.75-3.5,31.75c17,0,55.25-0.5,55.25-0.5
		C135.788,85.133,125.538,41.883,97.038,53.133z M108.503,88.387c-3.355,0.043-38.896,0.496-54.965,0.496
		c-5.765,0-10.148-7.434-10.216-14.079c-0.038-3.725,1.228-12.415,13.767-12.672l2.561-0.052l-0.114-2.559
		c-0.271-6.069,1.422-11.198,4.897-14.832c3.253-3.401,7.988-5.352,12.993-5.352c6.737,0,15.271,3.728,17.151,14.235l0.538,3.006
		l2.841-1.122c2.831-1.118,5.559-1.684,8.105-1.684c9.753,0,15.054,8.153,15.852,15.727
		C122.669,76.684,119.601,85.904,108.503,88.387z"/>
</g>
</svg>
