<?xml version="1.0" encoding="utf-8"?>
<!-- Generator: Adobe Illustrator 17.0.0, SVG Export Plug-In . SVG Version: 6.00 Build 0)  -->
<!DOCTYPE svg PUBLIC "-//W3C//DTD SVG 1.1//EN" "http://www.w3.org/Graphics/SVG/1.1/DTD/svg11.dtd">
<svg version="1.1" id="Ebene_2_Kopie" xmlns="http://www.w3.org/2000/svg" xmlns:xlink="http://www.w3.org/1999/xlink" x="0px"
	 y="0px" width="137.917px" height="100.917px" viewBox="0 0 137.917 100.917" enable-background="new 0 0 137.917 100.917"
	 xml:space="preserve">
<path d="M50.838,61.079c-4.939-2.758-8.291-8.032-8.291-14.079c0-8.889,7.231-16.12,16.12-16.12c5.315,0,10.023,2.597,12.961,6.576
	c0.7-0.463,1.428-0.885,2.178-1.269c-3.378-4.72-8.892-7.807-15.139-7.807c-10.283,0-18.62,8.336-18.62,18.62
	c0,6.774,3.629,12.684,9.037,15.942C49.602,62.284,50.194,61.665,50.838,61.079z"/>
<g>
	
		<line fill="#FFFF00" stroke="#000000" stroke-width="3" stroke-linecap="round" stroke-miterlimit="10" x1="58.667" y1="22.393" x2="58.667" y2="8.833"/>
	
		<line fill="#FFFF00" stroke="#000000" stroke-width="3" stroke-linecap="round" stroke-miterlimit="10" x1="76.067" y1="29.6" x2="85.655" y2="20.012"/>
	
		<line fill="#FFFF00" stroke="#000000" stroke-width="3" stroke-linecap="round" stroke-miterlimit="10" x1="41.267" y1="29.6" x2="31.679" y2="20.012"/>
	
		<line fill="#FFFF00" stroke="#000000" stroke-width="3" stroke-linecap="round" stroke-miterlimit="10" x1="20.5" y1="47" x2="34.101" y2="47"/>
	
		<line fill="#FFFF00" stroke="#000000" stroke-width="3" stroke-linecap="round" stroke-miterlimit="10" x1="31.679" y1="73.988" x2="41.267" y2="64.4"/>
</g>
<path d="M104.167,52.417c-4.25-23.75-41.25-21.5-40,6.5c-24.5,0.5-17.5,31.75-3.5,31.75c17,0,55.25-0.5,55.25-0.5
	C142.917,84.417,132.667,41.167,104.167,52.417z M115.632,87.671c-3.355,0.043-38.896,0.496-54.965,0.496
	c-5.765,0-10.148-7.434-10.216-14.079c-0.038-3.725,1.228-12.415,13.767-12.672l2.561-0.052l-0.114-2.559
	c-0.271-6.069,1.422-11.198,4.897-14.832c3.253-3.401,7.988-5.352,12.993-5.352c6.737,0,15.271,3.728,17.151,14.235l0.538,3.006
	l2.841-1.122c2.831-1.118,5.559-1.684,8.105-1.684c9.753,0,15.054,8.153,15.852,15.727C129.798,75.967,126.73,85.187,115.632,87.671
	z"/>
</svg>
