<?xml version="1.0" encoding="utf-8"?>
<!-- Generator: Adobe Illustrator 17.0.0, SVG Export Plug-In . SVG Version: 6.00 Build 0)  -->
<!DOCTYPE svg PUBLIC "-//W3C//DTD SVG 1.1//EN" "http://www.w3.org/Graphics/SVG/1.1/DTD/svg11.dtd">
<svg version="1.1" id="Ebene_2_Kopie" xmlns="http://www.w3.org/2000/svg" xmlns:xlink="http://www.w3.org/1999/xlink" x="0px"
	 y="0px" width="122px" height="122px" viewBox="16.188 0.979 122 122" enable-background="new 16.188 0.979 122 122"
	 xml:space="preserve">
<path d="M51.949,73.308c-4.939-2.758-8.291-8.032-8.291-14.079c0-8.889,7.231-16.12,16.12-16.12c5.315,0,10.023,2.597,12.961,6.576
	c0.7-0.463,1.428-0.885,2.178-1.269c-3.378-4.72-8.892-7.807-15.139-7.807c-10.283,0-18.62,8.336-18.62,18.62
	c0,6.774,3.629,12.684,9.037,15.942C50.713,74.513,51.305,73.894,51.949,73.308z"/>
<g>
	
		<line fill="none" stroke="#000000" stroke-width="3" stroke-linecap="round" stroke-miterlimit="10" x1="59.778" y1="34.622" x2="59.778" y2="21.062"/>
	
		<line fill="none" stroke="#000000" stroke-width="3" stroke-linecap="round" stroke-miterlimit="10" x1="77.178" y1="41.829" x2="86.766" y2="32.241"/>
	
		<line fill="none" stroke="#000000" stroke-width="3" stroke-linecap="round" stroke-miterlimit="10" x1="42.378" y1="41.829" x2="32.79" y2="32.241"/>
	
		<line fill="none" stroke="#000000" stroke-width="3" stroke-linecap="round" stroke-miterlimit="10" x1="21.611" y1="59.229" x2="35.212" y2="59.229"/>
	
		<line fill="none" stroke="#000000" stroke-width="3" stroke-linecap="round" stroke-miterlimit="10" x1="32.79" y1="86.217" x2="42.378" y2="76.629"/>
</g>
<path d="M105.278,64.646c-4.25-23.75-41.25-21.5-40,6.5c-24.5,0.5-17.5,31.75-3.5,31.75c17,0,55.25-0.5,55.25-0.5
	C144.028,96.646,133.778,53.396,105.278,64.646z M116.743,99.9c-3.355,0.043-38.896,0.496-54.965,0.496
	c-5.765,0-10.148-7.434-10.216-14.079c-0.038-3.725,1.228-12.415,13.767-12.672l2.561-0.052l-0.114-2.559
	c-0.271-6.069,1.422-11.198,4.897-14.832c3.253-3.401,7.988-5.352,12.993-5.352c6.737,0,15.271,3.728,17.151,14.235l0.538,3.006
	l2.841-1.122c2.831-1.118,5.559-1.684,8.105-1.684c9.753,0,15.054,8.153,15.852,15.727C130.909,88.196,127.841,97.416,116.743,99.9z
	"/>
</svg>
