<?xml version="1.0" encoding="utf-8"?>
<!-- Generator: Adobe Illustrator 17.0.0, SVG Export Plug-In . SVG Version: 6.00 Build 0)  -->
<!DOCTYPE svg PUBLIC "-//W3C//DTD SVG 1.1//EN" "http://www.w3.org/Graphics/SVG/1.1/DTD/svg11.dtd">
<svg version="1.1" id="Ebene_2_Kopie" xmlns="http://www.w3.org/2000/svg" xmlns:xlink="http://www.w3.org/1999/xlink" x="0px"
	 y="0px" width="94.439px" height="94.439px" viewBox="0 0 94.439 94.439" enable-background="new 0 0 94.439 94.439"
	 xml:space="preserve">
<path d="M47.478,27.395c-11.092,0-20.083,8.992-20.083,20.083c0,11.092,8.992,20.083,20.083,20.083
	c11.092,0,20.083-8.992,20.083-20.083C67.561,36.386,58.57,27.395,47.478,27.395z M47.478,65.061
	c-9.696,0-17.583-7.888-17.583-17.583c0-9.696,7.888-17.583,17.583-17.583s17.583,7.888,17.583,17.583
	C65.062,57.174,57.174,65.061,47.478,65.061z"/>
<g>
	
		<line fill="#FFFF00" stroke="#000000" stroke-width="3" stroke-linecap="round" stroke-miterlimit="10" x1="74.02" y1="47.478" x2="88.645" y2="47.478"/>
	
		<line fill="#FFFF00" stroke="#000000" stroke-width="3" stroke-linecap="round" stroke-miterlimit="10" x1="47.478" y1="20.936" x2="47.478" y2="6.311"/>
	
		<line fill="#FFFF00" stroke="#000000" stroke-width="3" stroke-linecap="round" stroke-miterlimit="10" x1="66.246" y1="28.71" x2="76.587" y2="18.369"/>
	
		<line fill="#FFFF00" stroke="#000000" stroke-width="3" stroke-linecap="round" stroke-miterlimit="10" x1="76.587" y1="76.587" x2="66.246" y2="66.246"/>
	
		<line fill="#FFFF00" stroke="#000000" stroke-width="3" stroke-linecap="round" stroke-miterlimit="10" x1="28.71" y1="28.71" x2="18.369" y2="18.369"/>
	
		<line fill="#FFFF00" stroke="#000000" stroke-width="3" stroke-linecap="round" stroke-miterlimit="10" x1="6.311" y1="47.478" x2="20.981" y2="47.478"/>
	
		<line fill="#FFFF00" stroke="#000000" stroke-width="3" stroke-linecap="round" stroke-miterlimit="10" x1="18.369" y1="76.587" x2="28.71" y2="66.246"/>
	
		<line fill="#FFFF00" stroke="#000000" stroke-width="3" stroke-linecap="round" stroke-miterlimit="10" x1="47.478" y1="88.645" x2="47.478" y2="73.975"/>
</g>
</svg>
