<?xml version="1.0" encoding="utf-8"?>
<!-- Generator: Adobe Illustrator 17.0.0, SVG Export Plug-In . SVG Version: 6.00 Build 0)  -->
<!DOCTYPE svg PUBLIC "-//W3C//DTD SVG 1.1//EN" "http://www.w3.org/Graphics/SVG/1.1/DTD/svg11.dtd">
<svg version="1.1" id="Ebene" xmlns="http://www.w3.org/2000/svg" xmlns:xlink="http://www.w3.org/1999/xlink" x="0px" y="0px"
	 width="94.439px" height="94.439px" viewBox="0 0 94.439 94.439" enable-background="new 0 0 94.439 94.439" xml:space="preserve">
<circle fill="#FFFF00" cx="47.728" cy="47.728" r="20.083"/>
<g display="none">
	
		<line display="inline" fill="#FFFF00" stroke="#FFFF00" stroke-width="3" stroke-linecap="round" stroke-miterlimit="10" x1="74.27" y1="47.728" x2="88.895" y2="47.728"/>
	
		<line display="inline" fill="#FFFF00" stroke="#FFFF00" stroke-width="3" stroke-linecap="round" stroke-miterlimit="10" x1="47.728" y1="21.186" x2="47.728" y2="6.561"/>
	
		<line display="inline" fill="#FFFF00" stroke="#FFFF00" stroke-width="3" stroke-linecap="round" stroke-miterlimit="10" x1="66.496" y1="28.96" x2="76.837" y2="18.619"/>
	
		<line display="inline" fill="#FFFF00" stroke="#FFFF00" stroke-width="3" stroke-linecap="round" stroke-miterlimit="10" x1="76.837" y1="76.837" x2="66.496" y2="66.496"/>
	
		<line display="inline" fill="#FFFF00" stroke="#FFFF00" stroke-width="3" stroke-linecap="round" stroke-miterlimit="10" x1="28.96" y1="28.96" x2="18.619" y2="18.619"/>
	
		<line display="inline" fill="#FFFF00" stroke="#FFFF00" stroke-width="3" stroke-linecap="round" stroke-miterlimit="10" x1="6.561" y1="47.728" x2="21.231" y2="47.728"/>
	
		<line display="inline" fill="#FFFF00" stroke="#FFFF00" stroke-width="3" stroke-linecap="round" stroke-miterlimit="10" x1="18.619" y1="76.837" x2="28.96" y2="66.496"/>
	
		<line display="inline" fill="#FFFF00" stroke="#FFFF00" stroke-width="3" stroke-linecap="round" stroke-miterlimit="10" x1="47.728" y1="88.895" x2="47.728" y2="74.225"/>
</g>
<path d="M47.728,27.645c-11.092,0-20.083,8.992-20.083,20.083c0,11.092,8.992,20.083,20.083,20.083
	c11.092,0,20.083-8.992,20.083-20.083C67.811,36.636,58.82,27.645,47.728,27.645z M47.728,65.311
	c-9.696,0-17.583-7.888-17.583-17.583c0-9.696,7.888-17.583,17.583-17.583s17.583,7.888,17.583,17.583
	C65.312,57.424,57.424,65.311,47.728,65.311z"/>
<g>
	
		<line fill="#FFFF00" stroke="#000000" stroke-width="3" stroke-linecap="round" stroke-miterlimit="10" x1="74.27" y1="47.728" x2="88.895" y2="47.728"/>
	
		<line fill="#FFFF00" stroke="#000000" stroke-width="3" stroke-linecap="round" stroke-miterlimit="10" x1="47.728" y1="21.186" x2="47.728" y2="6.561"/>
	
		<line fill="#FFFF00" stroke="#000000" stroke-width="3" stroke-linecap="round" stroke-miterlimit="10" x1="66.496" y1="28.96" x2="76.837" y2="18.619"/>
	
		<line fill="#FFFF00" stroke="#000000" stroke-width="3" stroke-linecap="round" stroke-miterlimit="10" x1="76.837" y1="76.837" x2="66.496" y2="66.496"/>
	
		<line fill="#FFFF00" stroke="#000000" stroke-width="3" stroke-linecap="round" stroke-miterlimit="10" x1="28.96" y1="28.96" x2="18.619" y2="18.619"/>
	
		<line fill="#FFFF00" stroke="#000000" stroke-width="3" stroke-linecap="round" stroke-miterlimit="10" x1="6.561" y1="47.728" x2="21.231" y2="47.728"/>
	
		<line fill="#FFFF00" stroke="#000000" stroke-width="3" stroke-linecap="round" stroke-miterlimit="10" x1="18.619" y1="76.837" x2="28.96" y2="66.496"/>
	
		<line fill="#FFFF00" stroke="#000000" stroke-width="3" stroke-linecap="round" stroke-miterlimit="10" x1="47.728" y1="88.895" x2="47.728" y2="74.225"/>
</g>
</svg>
