<?xml version="1.0" encoding="utf-8"?>
<!-- Generator: Adobe Illustrator 19.0.0, SVG Export Plug-In . SVG Version: 6.00 Build 0)  -->
<svg version="1.1" id="Ebene_1" xmlns="http://www.w3.org/2000/svg" xmlns:xlink="http://www.w3.org/1999/xlink" x="0px" y="0px"
	 viewBox="0 0 512 512" style="enable-background:new 0 0 512 512;" xml:space="preserve">
<path d="M283.4,11c1.8-2.7,2.7-5.7,3.3-8.8c0.2-0.8,0.1-1.6-0.8-2c-0.5-0.3-1.2-0.2-1.4,0.3c-1.4,3.3-4.6,5.8-5.3,9.3
	c-0.6,3.4-2.1,6.3-3.6,9.2c-13,24.6-23.7,50.2-30.5,77.2c-6.2,24.6-11,49.4-13.6,74.7c-1.4,13.5-2.5,27-3,40.5
	c-0.3,9.2-0.5,18.5-0.8,27.7c-0.1,4.9-0.3,9.8-1.4,14.8c-1.8,8.4-1.5,17.1,0.4,25.7c0.3,1.4,1.2,2.5,1.2,4
	c0.6,18.6,1.5,37.2,3.6,55.8c1.4,12,2.6,24,4.8,35.8c2.4,12.4,4.7,24.8,7.8,37.1c2.5,10.1,5.4,20.1,8.8,29.9
	c4.3,12.4,9.2,24.6,14.6,36.5c4.8,10.6,9.9,21.1,15.1,31.6c0.4,0.8,0.6,2.1,2,1.7c1.3-0.4,1.2-1.6,1-2.7c-0.3-1.6-0.6-3.3-1.5-4.8
	c-0.3-0.5-0.5-0.9-0.7-1.4c-0.4-0.6-0.7-1.3-1.1-2.1l0.2-488.5C282.8,12,283.1,11.5,283.4,11z M250.7,415.5
	c-7-26.9-11.3-54.2-13.7-81.9c-1.3-15.6-2.1-31.2-2.6-46.9c-0.1-3.8,1.4-7.4,1.2-11.2c-0.4-9.7-0.1-19.4-1.3-29.2
	c-1.2-9.1-0.2-18.4,0.1-27.7c0.4-12.8,1.2-25.6,2.2-38.4c1.2-15.5,3.2-31,5.8-46.3c3.5-20.4,7.9-40.6,14.3-60.3
	c5-15.5,11.4-30.3,18.3-45c1.9-4,3.9-8,6-12.2c0,0,0,0,0,0c0.1-0.2,0.2-0.3,0.3-0.5l-0.2,481.4c-0.9-1.9-1.6-3.6-2.4-5.2
	C266.8,467.4,257.6,441.9,250.7,415.5z"/>
</svg>
