<?xml version="1.0" encoding="utf-8"?>
<!-- Generator: Adobe Illustrator 19.0.0, SVG Export Plug-In . SVG Version: 6.00 Build 0)  -->
<svg version="1.1" id="Ebene_1" xmlns="http://www.w3.org/2000/svg" xmlns:xlink="http://www.w3.org/1999/xlink" x="0px" y="0px"
	 viewBox="0 0 512 512" style="enable-background:new 0 0 512 512;" xml:space="preserve">
<path d="M279.6,25.9c0-1.2,0.1-2.4,0.1-3.6c0.7-7.1-0.4-13.9-2.7-20.6c-0.3-0.8-0.5-1.8-1.6-1.7c-1.1,0.1-1.3,1-1.4,1.9
	c-0.1,2.4-0.3,4.9-0.2,7.3c0.1,3.9,0.6,7.8,0.6,11.6c0,5.9-0.1,11.8-0.4,17.7c-0.4,6.2-0.6,12.5-1.6,18.7
	c-0.9,5.5-1.6,11.1-2.8,16.6c-1.1,4.9-1.5,10.1-2.7,15.1c-3.2,12.7-7,25.3-11.9,37.4c-7.3,18-14.2,36.2-18.1,55.3
	c-2.6,12.7-4.9,25.4-4.7,38.5c0.1,8.1-0.3,16.3,0.5,24.4c0.6,6.4,0.7,12.9,1.6,19.3c0.9,6.7,1.8,13.4,2.6,20.1
	c1.3,10.3,2.5,20.5,3.7,30.8c1.4,11.7,2.7,23.4,4.2,35.1c0.5,3.6,0.2,7.2,0.6,10.8c0.7,4.8,1,9.7,1.4,14.6
	c0.6,6.2,1.2,12.5,1.9,18.7c1.9,15.7,6.3,30.7,11.4,45.6c3.6,10.4,6.6,21,8.1,32c1.2,9.3,3.8,18.5,3.2,28c-0.2,3.1-0.6,6.2-0.8,9.2
	c-0.1,1.2-0.2,2.6,1.3,3.1c1.4,0.5,2.5-0.3,3.4-1.3c1.2-1.5,1.6-3.3,1.5-5.1c0-0.7-0.1-1.4-0.1-2.1c0,0,0,0,0,0c0-0.2,0-0.5,0-0.8
	l0,0L279.6,25.9z M267.9,449.4c-2.4-9-5.5-17.7-8.2-26.6c-3.1-10.3-5-20.8-6.4-31.5c-1.5-11.1-2-22.2-2.8-33.3
	c-0.4-5.4-0.3-10.9-0.6-16.3c-0.5-10.9-2.5-21.7-4.1-32.5c-2.5-17-4.8-34-6.8-51.1c-1.4-11.8-2.2-23.6-2-35.5
	c0.2-11.1,1.4-22.1,3.2-33c2.1-12.5,5.7-24.7,9.6-36.7c4.1-12.9,9.4-25.4,13.7-38.2c5.1-15.5,9.5-31.1,12-47.2
	c1-6.2,1.8-12.5,2.6-19c0.2-1.4,0.4-3.9,0.6-6.6L275.9,493C274.2,478.3,271.7,463.7,267.9,449.4z"/>
</svg>
