<?xml version="1.0" encoding="utf-8"?>
<!-- Generator: Adobe Illustrator 19.0.0, SVG Export Plug-In . SVG Version: 6.00 Build 0)  -->
<svg version="1.1" id="Ebene_1" xmlns="http://www.w3.org/2000/svg" xmlns:xlink="http://www.w3.org/1999/xlink" x="0px" y="0px"
	 viewBox="0 0 512 512" style="enable-background:new 0 0 512 512;" xml:space="preserve">
<path d="M370.9,322.5c0-2.6-0.8-3.4-2.9-3.6c-2.4-0.2-3.4,0.6-3.9,3c-0.1,0.6-0.1,1.4-1,1.4c-0.9,0-0.9-0.7-1-1.4
	c-0.4-2.4-1.2-3.1-3.4-3.1c-2,0-3.2,1-3.2,3.1c0,0.6,0,1.4-0.9,1.4c-1,0-0.9-0.8-1-1.5c-0.2-2.1-1.3-3-3.5-3.1c-2,0-3,1-3.1,2.9
	c-0.1,0.7,0.1,1.6-0.9,1.6c-1.2,0.1-1-1-1.1-1.7c-0.2-2-1.4-2.8-3.3-2.8c-1.9,0-3.1,0.8-3.3,2.8c-0.1,0.7,0,1.6-0.9,1.6
	c-1,0-0.9-1-0.9-1.6c-0.1-2.3-1.6-2.8-3.4-2.8c-1.9-0.1-3.1,0.7-3.4,2.7c-0.1,0.7,0.2,1.8-1,1.8c-1.1,0-1-1-1-1.8
	c-0.2-2-1.4-2.8-3.3-2.7c-1.9,0.1-3.1,0.8-3.2,2.9c0,0.6,0.5,1.7-0.9,1.7c-1.1,0-1-0.9-1-1.7c-0.1-2.1-1.5-2.7-3.3-2.8
	c-2-0.1-3.1,0.9-3.3,2.7c-0.1,0.7,0.3,1.6-0.7,1.7c-1.1,0.2-1.1-0.8-1.2-1.6c-0.3-2.1-1.5-2.9-3.5-2.9c-1.9,0-3.1,0.8-3.2,2.8
	c-0.1,0.7,0,1.7-1.2,1.6c-1-0.1-0.8-1-0.8-1.7c0-2-1.3-2.7-3-2.8c-1.8-0.1-3.4,0.5-3.5,2.5c-0.1,1.7-0.8,2.1-2.4,2.1
	c-8.1-0.1-16.2,0-24.3,0c-0.8,0-1.7,0-2.5-0.5c-3.1-1.8-5.8-7.7-5-11.2c0.8-3.5,2.7-6.5,4.7-9.4c1.3-1.9,2.8-3.3,5.1-3.9
	c1.6-0.4,1.8-1.5,1.2-2.8c-1.2-2.7-0.7-5.2,0.9-7.6c0.4-0.5,0.6-1.1,0.9-1.7c4.1-8.3,5.8-16.9,2.6-25.9c-1.7-4.7,1-10.1,5.8-11.6
	c3.7-1.2,7.4-0.5,11.1-0.6c1.7,0,2.4-0.5,2.4-2.3c-0.1-5.9-0.1-11.8,0-17.7c0-1.3-0.5-2-1.7-2.5c-2.1-1-4.2-1.9-6-3.3
	c-3.5-2.7-6.6-5.8-9.2-9.6c0.4-0.1,0.5-0.3,0.7-0.3c12.2,0,24.3,0.1,36.5,0.1c1.1,0,1.5,0.5,1.5,1.6c0,1.7,0,3.4,0,5.1
	c0,0.8,0.1,1.6,0.9,2c2.8,1.7,6,0,6-3.2c0-7.5,0-15.1,0-22.6c0-3.4,0-3.4-3.6-3.4c-2.9,0-3.3,0.4-3.4,3.3c0,0.8-0.1,1.7,0,2.5
	c0.2,1.8-0.6,2.3-2.3,2.3c-13.8,0-27.6-0.1-41.4,0c-3,0-4-0.7-4.2-4.4c-0.2-2.8-0.1-5.6,0-8.4c0-4.2,0.9-8.3,3-11.9
	c4-6.7,9.1-11.5,17.6-10.7c1.3,0.1,2.7-0.1,4,0c1.7,0.1,2.4-0.6,2.7-2.2c0.7-3.3,1.6-6.6,2.4-9.8c2.6-10.4,5.9-20.6,4.9-31.5
	c0-0.3,0-0.6,0-0.8c0.5-6.9,2.9-12.6,10.3-14.9c1.4-0.4,1.1-1.3,0.8-2.3c-1.9-5.2-4.3-10.2-7.2-15c-3.6-5.8-7.6-11.2-12.3-16
	c-6.5-6.6-13.7-12.3-21.5-17.2c-6-3.7-12.2-7.1-18.6-10c-18.4-8.4-37.6-13.7-57.5-17.3c-4.5-0.8-3.5-0.2-4.2-4.3
	c-1.3-8.3-5.6-14.6-12.7-19c-3.2-2-6.7-2.9-10.3-3.7c-2.3,0-4.5,0-6.8,0c-6.1,1.1-11.5,3.5-15.8,7.9c-5.3,5.5-6.7,10.8-7.1,12.7
	c0,0.2-0.1,0.5-0.1,0.7c0.1,0.1,0,0.7-0.3,1.8c-0.1,0.9-0.2,1.8-0.3,2.7l-0.1,0l0.1,0.7c0,0.1,0,0.2,0,0.3c0,0.5,0.1,0.9,0.1,1.4
	l2,451.4c-0.1,1.2-0.2,2.2-0.2,3c0,0.1,0,0.1,0,0.2c0,0.1,0,0.2,0,0.4c0,1.9,0.2,3.8,0.5,5.8c0.8,4.1,1.9,6.9,2.7,8.6
	c0.5,0.7,1,1.5,1.4,2.3c2.1,4.1,5.6,7,9.7,9c2.7,1.3,5.7,2.2,8.8,1.5c2.5-0.6,3.3-2.4,2.1-4.6c-0.6-1-1.3-2-2.1-2.9
	c-4.2-5.6-4.3-12-0.1-17.3c2.4-3,7-4.4,10.2-3.1c3.4,1.4,4.5,3.6,3.9,8.5c-0.2,2-0.3,3.9,0.2,5.9c0.6,2.6,2.5,4.1,5.2,4.1
	c3.5,0,6.7-2.2,8-5.6c1.7-4.6,2.7-9.3,2.4-14.3c-0.1-2.1,0.7-2.8,2.6-3.1c18.8-3.4,37.1-8.3,54.6-16c17.5-7.7,33.5-17.6,46.2-32.1
	c7.1-8.1,12.7-17.2,16.3-27.4c0.3-1,0.4-1.8-0.6-2.4c-4.3-2.8-5.6-7.3-6.3-11.9c-0.4-2.4-0.2-5-0.7-7.3c-2.3-9.8-4.8-19.5-7.1-29.3
	c-0.3-1.3-0.9-1.8-2.3-2.1c-5.5-1-10.8-2.7-15.7-5.4c-3.2-1.8-6.1-3.8-8.4-6.6c-0.3-0.3-0.8-0.8-0.4-1.3c0.3-0.4,0.8-0.3,1.2-0.3
	c6.1,0,12.3,0,18.4,0c1.1,0,1.7,0.3,1.8,1.5c0.2,2.5,1.2,3.4,3.3,3.4c2.1,0,2.9-0.8,3.2-3.5c0.1-0.7,0.1-1.3,1-1.3
	c0.9,0,0.9,0.6,1,1.3c0.4,2.8,1.1,3.5,3.2,3.5c2.2,0,3.1-0.8,3.5-3.3c0.1-0.7,0-1.6,1.1-1.4c1,0.1,0.8,0.9,0.9,1.6
	c0.2,2.2,1.2,3.2,3.4,3.2c1.9,0,3-1,3.2-3.1c0.1-0.7-0.2-1.8,0.9-1.8c1.3-0.1,1,1.1,1.1,1.8c0.2,2.5,1,3.1,3.4,3
	c2.3-0.1,3.1-1.3,3.1-3.4c0-0.7,0.3-1.3,1.1-1.3c1-0.1,0.9,0.7,0.9,1.3c0,2.1,1,3.3,3.1,3.5c1.9,0.1,3.6-1.1,3.8-3.1
	c0.1-1.1,0.7-1.1,1.3-1.8c0.1,0.6,0.2,0.8,0.2,1.1c0.3,2.8,1,3.7,3.2,3.8c2.3,0.1,3.1-0.7,3.6-3.6c0.1-0.6,0.1-1.2,0.9-1.2
	c1,0,0.9,0.8,1,1.5c0.3,2.4,1.1,3.3,3.2,3.2c2.3-0.1,3.2-0.9,3.4-3.1c0.1-0.6-0.3-1.6,0.8-1.7c1.1-0.1,1,0.9,1,1.7
	c0.1,1.6,0.7,2.7,2.4,3c2.5,0.5,3.9-0.5,4.2-3c0.1-0.7,0.1-1.4,1.1-1.4c0.8,0,0.8,0.5,0.9,1.1c0.3,2.8,1.2,3.6,3.7,3.4
	c2.2-0.1,3-1.1,3.1-3.9C370.9,332.4,370.9,327.5,370.9,322.5z M269.4,168.9c-2.6,0-4.8-2.1-4.9-4.6c0-2.5,2.3-4.9,4.8-4.9
	c2.6,0,4.8,2.2,4.7,4.9C274.1,167,272.2,168.9,269.4,168.9z M298.1,143.4c-0.9,4-2,8-3,12.1c-0.8,3.1-3.1,4.9-6.8,4.8
	c-2.4-0.3-5.5-0.7-8.6-1.2c-2.2-0.4-2.6-1.4-1.6-3.4c0.3-0.6,0.7-1.2,1.2-1.7c4.7-4.7,9.7-9.1,15.1-13c1.2-0.9,2.8-2.2,4.2-1.2
	C299.6,140.6,298.4,142.2,298.1,143.4z M290.4,86.3c0.8-0.2,1.7-0.2,2.5-0.2c4.9,0,5.7,0.7,5.7,5.5c0,3.2,0,6.3,0,9.5
	c0,2.6-1,3.6-3.7,3.9c-6.3,0.5-7.3-0.3-7.3-6.5c0-1,0-2,0-3c0-2,0.1-3.9,0-5.9C287.5,87.6,288.6,86.7,290.4,86.3z M289.4,112
	c2.4-0.7,4.9-0.6,7.3,0c1.3,0.3,1.8,1.2,1.8,2.5c0,1.6,0,3.2,0,4.9c0,0,0,0,0,0c0,1.6,0,3.2,0,4.9c0.1,1.6-0.8,2.5-2.3,2.8
	c-0.9,0.2-1.8,0.4-2.7,0.4c-5,0.2-6-0.7-6-5.6c0-2.4,0.1-4.8-0.1-7.2C287.5,113.1,288.1,112.3,289.4,112z M285.9,136.4
	c0.5,0,1,0,1.5,0.2c0.9,0.3,1.9,0.7,2.2,1.8c0.3,1.1-0.5,1.8-1.3,2.5c-2.6,2.1-5.1,4.1-7.7,6.2c-2.3,1.9-4.5,3.8-6.8,5.7
	c-1,0.8-2.1,1.4-3.3,1.8c-2.7,0.8-4.2-0.3-4.3-3.2c0-1.8,0.6-3.3,1.6-4.7C272.1,140.1,277.7,135.9,285.9,136.4z M189.9,25.5
	c-0.2,0.9-0.8,0.8-1.9,0.6c-1.4-0.2-3.2-0.4-5-0.6c-1.1-0.2-1.3-0.7-0.5-1.5c0.9-1,1.9-1.9,3.3-2.2C188.4,21,190.4,22.9,189.9,25.5z
	 M189.3,33.5c-1,4.8-4.2,6.5-8.7,4.4c-1.6-0.7-2.8-1.8-3.9-3.2c-0.6-0.8-1.5-1.6-0.8-2.8c0.7-1.1,1.2-2.8,3.2-2.1
	c3,0.6,6,1.2,9.1,1.8C189.2,31.9,189.5,32.5,189.3,33.5z M168.1,7.2c1.2-1.2,2.7-1.9,4.6-1.4c2.9,0.7,5.5,1.9,8.1,3.6
	c1.8,1.1,2.7,2.6,2.5,4.4c0.1,5.3-4.5,8.3-8.1,9c-0.6,0.1-0.9-0.1-1.3-0.5c-2.8-3.1-4.6-6.9-6.2-10.7C167,10.1,166.9,8.5,168.1,7.2z
	 M172.3,38.4c1.6,0.8,3.2,1.7,4.9,2.4c1.7,0.7,2.4,2.1,3.3,3.4c0.6,0.9,0,1.5-0.8,2.1c-2.8,2-7.3,3.4-11.3,3.4c-4,0-6.3-2.5-5.4-6.4
	C164.4,36.8,165.9,35.4,172.3,38.4z M148.6,16.8c1.6-2.2,2.9-4.7,5.2-6.2c2.8-1.9,5.7-1.7,8.3,0.5c2.6,2.3,3.2,5.3,3,8.6
	c-0.1,0.9-0.7,1-1.4,1.4c-3.5,1.9-7.3,1.9-10.8,2.5c-1.9-0.2-3.7,0.2-4.7-1.6C147,20.2,147.4,18.4,148.6,16.8z M149.6,29.2
	c1.5-0.8,3.2-1.6,4.9-1.3c0.4,0,0.6,0,0.8,0c3.9,0.2,5.3,1.6,5,5.5c-0.3,2.9-0.8,5.7-1.4,8.5c-0.2,0.9-0.6,1.8-1.1,2.5
	c-0.8,1.1-2,1.6-3.3,0.6c-3.3-2.6-5.8-5.7-7.2-9.6C146.3,32.9,147.2,30.4,149.6,29.2z M145.9,43c10.1,13.7,30.9,15.8,43.6,0.9
	c0.2-0.3,0.5-0.7,0.7-1.1l-20.8,209.9L145.9,43C145.9,43,145.9,43,145.9,43z M146.2,470.2l-1.9-414.7l23.7,211l-19.8,200.4
	C147.5,467.9,146.8,469,146.2,470.2z M147.8,479.7c0-2.1,1.6-3.9,3.6-3.9c1.9,0,3.8,1.9,3.8,3.8c0,1.9-1.9,3.7-3.9,3.8
	C149.5,483.5,147.9,481.7,147.8,479.7z M163.7,507.6c-1,1-2.3,0.1-3.3-0.5c-2.2-1.2-4.3-2.4-6-4.2c-2-1.9-2.8-4.3-3-7.1
	c0.2-0.8,0.2-1.8,0.6-2.5c0.7-1.3,1.5-2.7,3.2-2.6c1.6,0.1,2.9,1,3.6,2.5c0.4,0.8,0.6,1.8,0.6,2.6c0.2,3.2,1.2,6,3.4,8.4
	C163.6,505.3,164.8,506.4,163.7,507.6z M162,472.4c-2.7,0-5.2-2.4-5.2-5.1c0-2.6,2.4-4.9,5.1-5c2.6,0,4.9,2.3,4.9,5
	C166.7,470,164.5,472.4,162,472.4z M168.1,456.5c-4.1,0.2-7.9,1.3-11.5,3.3c-0.8,0.5-1.7,1.1-2.6,1.6c-0.8,0.6-1.6,1.2-2.4,1.8
	c0,0,0,0,0-0.1c0,0,0,0,0,0l18.1-182.8l20.8,185.5c-1-1.1-1.9-2-2.4-2.4c-0.1-0.1-0.2-0.2-0.4-0.3
	C182.1,458.1,175.5,456.1,168.1,456.5z M181.4,476c-5,0.1-9.1-5.9-7.3-10.2c0.8-2,2.3-2.9,4.5-2.8c3.5,0.2,6,2.2,8.3,4.5
	c1.5,1.5,2.7,3.2,3.5,5.2c0.4,0.9,0.2,1.5-0.8,1.7C186.7,475,183.9,475.8,181.4,476z M191.5,488.8c-0.4,2.1-0.7,4.3-1.9,6.2
	c-0.9,1.4-1.9,2.9-3.8,2.4c-1.7-0.5-1.7-2.2-1.9-3.7c-0.1-0.3,0-0.7,0-1.5c0.1-1.4,0.5-3.3,1.1-5.1c0.6-1.8,2.8-3.1,4.3-2.6
	C190.8,484.9,191.8,486.9,191.5,488.8z M280.9,422.1c-6.6,6.8-13.7,13-21.2,18.7c-4.7,3.6-9.7,6.9-14.7,10.1
	c-15,9.6-31.1,16.9-48.3,21.8c-1.9,0.5-2.5,0.3-2.7-1.5c0,0,0-0.1-0.1-0.1l-23-204.3l22.9-231.9c0.3-1.5,1.1-1.6,2.5-1.2
	c8.8,2.5,17.4,5.6,25.8,9.4c5.8,2.6,11.5,5.6,17,8.9c15,8.9,28.7,19.3,41,31.6c1.1,1.2,1.6,2.4,1.5,3.9c0,13.7-0.1,27.3,0,41
	c0,2.4-0.7,3.5-2.9,4.4c-6.7,2.7-12,7.3-15.9,13.3c-1.9,2.9-3,6.1-3,9.7c-0.1,5.7-1.4,11.2-6.5,14.9c-0.8,0.6-0.6,1.5-0.6,2.3
	c0,5.2,0,10.4,0,15.6c0,1.4-0.3,2.8-0.9,4.1c-1.7,3.2-3.3,6.5-4.9,9.8c-0.6,1.2-1.3,1.7-2.6,1.7c-10.4-0.1-20.8-0.1-31.2-0.1
	c-9.4,0-18.7,0-28.1,0.1c-1.7,0-2,0.8-2,2.3c0,1.5,0.5,2.2,2.1,2.1c8.8,0,17.6,0,26.4,0c0.7,0,1.4,0,2.1,0c0,0,0,0,0,0
	c9.2,0,18.3,0,27.5,0c2.8,0,2.8,0,1.5,2.6c-3.3,6.6-6.6,13.2-10,19.8c-0.9,1.9-1.2,3.8-1.4,5.9c-0.6,6.2,0.9,11.8,4.1,17.1
	c0.9,1.4,1.4,3.1,2.1,4.6c0.5,1,0.1,1.8-0.2,2.6c-2.2,5.5-6.9,8.2-12,10.2c-1.3,0.5-2.7,0.8-3.8,1.7c-2.4,1.9-2.1,4.5,0.6,5.9
	c3.3,1.7,6.9,2,10.4,2.4c2,0.2,3.9,0.4,5.9,0.8c7.8,1.5,10.7,6.9,7.9,14.4c-1.6,4.3-4.3,8-7.3,11.5c-2.5,3-5.2,5.9-7.6,9
	c-2.8,3.8-2,6.8,2.5,8c4.5,1.2,8,3.8,11.4,6.6c8,6.6,14.1,14.4,16.5,24.8c1,4.4,2.6,8.6,5,12.5c3.3,5.1,7.7,8.9,13,11.8
	c1.4,0.7,1.9,1.6,1.9,3.1c0,12,0,24.1,0.1,36.1C281.9,420.9,281.5,421.5,280.9,422.1z M271,361c2-1.9,4.2-0.3,5.9,0.9
	c2.4,1.6,4.6,3.7,6.9,5.6c2.6,2.1,5.2,4.3,7.8,6.3c1,0.8,2.2,1.6,1.8,3c-0.4,1.4-1.7,1.5-2.9,1.7c-0.7,0.1-1.4,0.2-2,0.3
	c-4.9-0.6-9.3-1.8-12.7-5.7c-1.7-1.9-3.7-3.5-4.7-5.8C270,365.2,269.1,362.8,271,361z M295.6,420.1c-0.3,0.1-0.6,0.1-0.8,0.1
	c-7.1,0.2-7.4-0.5-7.2-6.6c0.1-2.9,0.1-5.8,0-8.7c-0.1-2.1,1.1-3.2,3-3.4c1.6-0.2,3.2-0.2,4.8,0c2.1,0.2,3.1,1.3,3.1,3.5
	c0,2,0,3.9,0,5.9c0,2-0.1,3.9,0,5.9C298.7,418.8,297.5,419.7,295.6,420.1z M281.2,357.5c0.5-1.6,2.1-1.6,3.5-1.9
	c2.7-0.5,5.4-0.7,8.2-0.9c2.7-0.2,5,1.5,5.7,4.3c1.3,4.8,2.5,9.6,3.7,14.5c0.5,1.8-0.2,2.5-2.1,1.9c-2.3-0.7-3.9-2.4-5.7-3.9
	c-3.9-3.2-7.8-6.4-11.3-10.1c-0.1-0.1-0.2-0.2-0.3-0.3C282.1,360,280.7,359.1,281.2,357.5z M277.9,350.8c0,2.7-2,4.8-4.8,4.8
	c-2.6,0-4.7-2.2-4.7-4.9c0-2.4,2.2-4.5,4.6-4.6C275.7,346,277.9,348,277.9,350.8z"/>
</svg>
