<?xml version="1.0" encoding="utf-8"?>
<!--
  ~ Copyright (C) 2018 Florian Dreier
  ~
  ~ This file is part of MyTargets.
  ~
  ~ MyTargets is free software: you can redistribute it and/or modify
  ~ it under the terms of the GNU General Public License version 2
  ~ as published by the Free Software Foundation.
  ~
  ~ MyTargets is distributed in the hope that it will be useful,
  ~ but WITHOUT ANY WARRANTY; without even the implied warranty of
  ~ MERCHANTABILITY or FITNESS FOR A PARTICULAR PURPOSE.  See the
  ~ GNU General Public License for more details.
  -->

<!-- Generator: Adobe Illustrator 21.0.0, SVG Export Plug-In . SVG Version: 6.00 Build 0)  -->
<svg version="1.1" id="Ebene_1" xmlns="http://www.w3.org/2000/svg"  x="0px" y="0px"
	 viewBox="0 0 24 24" style="enable-background:new 0 0 24 24;" xml:space="preserve">
<path d="M12,0C5.4,0,0,5.4,0,12c0,6.6,5.4,12,12,12s12-5.4,12-12C24,5.4,18.6,0,12,0z M12.1,3c0.5-0.6,1.2-0.8,2-0.6
	c1.3,0.3,2.5,0.9,3.6,1.6c0.8,0.5,1.2,1.2,1.1,2c0.1,2.4-2,3.7-3.6,4c-0.3,0-0.4,0-0.6-0.2c-1.2-1.4-2-3.1-2.8-4.8
	C11.6,4.3,11.5,3.6,12.1,3z M3.3,7.3c0.7-1,1.3-2.1,2.3-2.8c1.2-0.8,2.5-0.8,3.7,0.2c1.2,1,1.4,2.4,1.3,3.8c0,0.4-0.3,0.5-0.6,0.6
	c-1.5,0.8-3.3,0.9-4.8,1.1c-0.8-0.1-1.6,0.1-2.1-0.7C2.7,8.8,2.8,8,3.3,7.3z M7.9,18.5c-0.1,0.4-0.3,0.8-0.5,1.1
	c-0.4,0.5-0.9,0.7-1.5,0.3c-1.5-1.1-2.6-2.6-3.2-4.3c-0.4-1.1,0-2.2,1.1-2.8c0.7-0.4,1.4-0.7,2.2-0.6c0.2,0,0.2,0,0.3,0
	c1.7,0.1,2.4,0.7,2.2,2.5C8.4,15.9,8.2,17.2,7.9,18.5z M17.2,20.4c-1.2,0.9-3.3,1.5-5,1.5c-1.8,0-2.8-1.1-2.4-2.8
	c0.7-2.9,1.3-3.5,4.2-2.2c0.7,0.3,1.4,0.8,2.2,1.1c0.7,0.3,1,1,1.5,1.5C17.8,19.9,17.5,20.2,17.2,20.4z M18.5,17.1
	c-1.5-0.1-2.6-1.1-3.3-2.3c-0.2-0.3,0-0.6,0.1-0.9c0.8-1.6,2.1-2.6,3.3-3.7c0.7-0.4,1.3-1,2.1-0.6c0.9,0.4,1.2,1.1,1.2,2
	c0,1.2,0.2,2.4-0.2,3.6C21.1,16.5,20,17.2,18.5,17.1z"/>
</svg>
