<?xml version="1.0" encoding="utf-8"?>
<!-- Generator: Adobe Illustrator 19.0.0, SVG Export Plug-In . SVG Version: 6.00 Build 0)  -->
<svg version="1.1" id="Ebene_1" xmlns="http://www.w3.org/2000/svg" xmlns:xlink="http://www.w3.org/1999/xlink" x="0px" y="0px"
	 viewBox="0 0 512 512" style="enable-background:new 0 0 512 512;" xml:space="preserve">
<path d="M296.9,56.1c0.2-1.6,0.4-3.1,0.6-4.7c0,0,0,0,0-0.1c0-0.2,0-0.4,0.1-0.5c1.2-8.8,2.8-17.6,6.1-26c0.4-1,0.5-2,0.2-3
	c-2.4-6.6-3.2-13.6-3.9-20.5c-0.1-0.5,0-1.1-0.6-1.3c-0.6-0.2-0.9,0.4-1.2,0.8c-1.6,1.8-2.5,4-3.9,5.9c-3.1,4.4-2.6,9.6-3.4,14.4
	c-1.9,11.8-2.3,23.8-4.2,35.7c-1.5,9.8-4.2,19.4-7.7,28.7c-2.8,7.3-7.2,13.6-10.6,20.5c-2.2,4.5-5,8.7-7.8,12.8
	c-5,7.4-11.7,13.3-18.1,19.5c-7.8,7.5-14.5,15.9-19.6,25.4c-7.2,13.4-12.4,27.6-14.2,42.9c-0.5,4.3-1.2,8.6-0.7,12.9
	c0.8,6.3,2.9,12.1,5.2,18c1.5,4,3.1,8,4.4,12c2.1,6.4,2.3,13.1,2.7,19.8c0.4,6.6,0.3,13.1-1.4,19.5c-1.5,5.8-3.9,11.4-5.7,17.1
	c-2.1,6.4-3.8,12.8-3.4,19.8c1,16.3,6.4,31.2,14.5,45.1c5.8,9.9,13.9,17.8,23,24.7c4.4,3.4,8.7,6.9,12.6,11
	c5.3,5.6,9,12.4,13.4,18.5c1.2,1.7,2.5,3.3,3.6,5c4.6,7.8,7.4,16.3,9.5,25.1c2.6,11.1,3.7,22.4,4.6,33.8c0.2,2.6-1,5.9,2.2,7.8
	c0.4,0.3,0,0.6-0.2,0.9c-0.4,0.5-0.4,1.1-0.4,1.7c0,1.4,0.4,2.7,0.9,4.1c1.1,2.6,2.9,4.8,4.5,7.1c0.5,0.7,1,1.7,2,1.4
	c1-0.3,1-1.4,1-2.3c0.1-5,0.9-9.8,2.2-14.6c0.9-3.3,0.8-6.3-0.6-9.6c-0.7-1.6-1.3-3.2-1.8-4.8c-1.5-3.1-3.2-8.7-5.1-18.1l0.7-402.9
	C296.5,58.4,296.7,57.3,296.9,56.1z M293.7,451.9c-0.8-4.6-1.6-9.8-2.4-15.8c0,0,0,0,0,0c-0.4-1.4-0.7-2.9-0.7-4.3
	c-0.2-6.3-3.2-10.8-7.5-15c-5.5-5.3-11-10.6-16.7-15.7c-2.8-2.5-6.5-3.7-9.4-6.1c-7.1-5.8-13.2-12.4-18.2-20
	c-8.3-12.7-13.3-26.7-15.3-41.7c-0.8-6.3,0.4-12.5,1.3-18.6c0.8-5.5,1.9-10.9,3.5-16.2c1.3-4.3,3.1-8.4,4-12.8
	c3-13.6,2-26.8-3.1-39.8c-2.2-5.7-5.1-11.1-6.4-17.1c-2.4-11.9-1.2-23.5,1.9-35.1c5.2-19.2,14.8-36.1,27.1-51.6
	c3.7-4.6,8.1-8.7,12.3-13c8-8.1,15.1-17.1,22.2-25.9c2.7-3.3,3-7.2,3.5-11.2c0.5-3.6,0.9-7.1,2.1-10.9c0,0,0,0,0,0s1.1-4.8,2.3-10.8
	L293.7,451.9z"/>
</svg>
