<?xml version="1.0" encoding="utf-8"?>
<!--
  ~ Copyright (C) 2018 Florian Dreier
  ~
  ~ This file is part of MyTargets.
  ~
  ~ MyTargets is free software: you can redistribute it and/or modify
  ~ it under the terms of the GNU General Public License version 2
  ~ as published by the Free Software Foundation.
  ~
  ~ MyTargets is distributed in the hope that it will be useful,
  ~ but WITHOUT ANY WARRANTY; without even the implied warranty of
  ~ MERCHANTABILITY or FITNESS FOR A PARTICULAR PURPOSE.  See the
  ~ GNU General Public License for more details.
  -->

<!-- Generator: Adobe Illustrator 21.0.0, SVG Export Plug-In . SVG Version: 6.00 Build 0)  -->
<svg version="1.1" id="Ebene_1" xmlns="http://www.w3.org/2000/svg"  x="0px" y="0px"
	 viewBox="0 0 512 512" style="enable-background:new 0 0 512 512;" xml:space="preserve">
<path d="M304.6,479.4l-0.2-0.5c-1-2.1-2.7-6.7-4.7-16.8l0.7-402.3c0.1-0.8,0.2-1.6,0.4-2.6l0.1-0.6c0.1-0.8,0.2-1.6,0.3-2.4l0.4-2.8
	c1-7.7,2.6-16.7,5.9-25.1c0.8-1.9,0.9-3.8,0.3-5.6l-0.1-0.2c-2.2-6-3-12.4-3.7-19.5l-0.1-0.4l0,0c-0.3-2.9-2.2-4-3.3-4.3
	c-1-0.3-3.5-0.8-5.6,2.1c-1.1,1.3-1.9,2.7-2.6,3.9C292,3,291.5,3.7,291,4.4c-2.9,4.1-3.3,8.5-3.7,12.4c-0.1,1.3-0.2,2.5-0.4,3.6
	c-1,6-1.6,12.2-2.1,18.1c-0.6,5.8-1.1,11.8-2.1,17.6c-1.4,8.9-3.9,18.3-7.5,27.9c-1.6,4.2-3.8,8.1-6.2,12.2c-1.5,2.6-2.9,5.2-4.3,8
	c-2.1,4.2-4.7,8.2-7.5,12.3c-4,5.9-9.1,10.8-14.5,15.9c-1,1-2.1,2-3.1,2.9c-8.5,8.2-15.3,17-20.4,26.4
	c-8.1,15.1-12.9,29.6-14.6,44.3c-0.1,0.6-0.1,1.2-0.2,1.8c-0.5,3.9-1,7.8-0.5,12c0.9,6.8,3.2,13.1,5.4,18.9c0.4,1,0.8,2,1.1,3
	c1.1,2.9,2.3,5.9,3.2,8.8c1.7,5.3,2.1,10.9,2.4,16.9l0.1,1.9c0.3,5.1,0.4,11.8-1.3,18.3c-0.9,3.3-2,6.6-3.3,10
	c-0.8,2.2-1.6,4.6-2.4,6.8c-2.1,6.5-4,13.5-3.6,21.3c1,15.8,5.9,31.2,15,46.9c5.4,9.2,13.3,17.7,24,25.8c4.1,3.1,8.3,6.6,12.1,10.6
	c3.3,3.5,6,7.5,8.8,11.8c1.4,2.1,2.8,4.2,4.2,6.2c0.5,0.7,1,1.4,1.5,2c0.7,1,1.4,1.9,2,2.8c3.8,6.5,6.7,14.1,9,23.9
	c2.6,11.2,3.7,22.5,4.5,33.2c0,0.4,0,0.9,0,1.5c-0.1,1.8-0.2,4.8,1.7,7.3c-0.1,0.5-0.1,1-0.1,1.3c0,2.1,0.6,3.9,1.1,5.4l0.1,0.2
	c1,2.5,2.5,4.5,3.9,6.4c0.3,0.5,0.7,0.9,1,1.5l0.1,0.2c1.5,2.3,3.3,2.9,4.7,2.9c0.6,0,1.1-0.1,1.5-0.2c1.8-0.5,3.8-2,3.8-6.1
	c0.1-4.4,0.8-8.8,2.1-13.6c1.2-4.3,0.9-8.2-0.8-12.3C305.6,482.3,305.1,480.9,304.6,479.4z M228.4,317.6c0.1-0.8,0.2-1.5,0.3-2.3
	c0.8-5.8,1.9-10.9,3.4-15.6c0.4-1.5,1-2.9,1.5-4.4c1-2.8,2-5.6,2.6-8.6c3.2-14.3,2.1-28.5-3.3-42.1c-0.7-1.8-1.5-3.6-2.2-5.4
	c-1.6-3.8-3.2-7.4-4-11.1c-2.1-10.3-1.5-20.8,1.8-33.3c4.7-17.3,13.3-33.7,26.4-50.1c2.6-3.3,5.6-6.3,8.8-9.5
	c1.1-1.1,2.1-2.1,3.2-3.2c7.4-7.5,14.1-15.8,20.6-23.8l1.9-2.4c0.3-0.3,0.5-0.7,0.8-1l-0.4,313.5c-1.2-1.6-2.6-3.1-3.9-4.3
	c-5.4-5.2-11.1-10.7-16.8-15.8c-1.8-1.6-3.7-2.7-5.6-3.7c-1.4-0.8-2.8-1.6-3.9-2.5c-7-5.7-12.7-12-17.4-19.1
	c-7.8-11.9-12.7-25.4-14.7-40C226.8,327.8,227.6,322.8,228.4,317.6z"/>
</svg>
