<?xml version="1.0" encoding="utf-8"?>
<!--
  ~ Copyright (C) 2017 Florian Dreier
  ~
  ~ This file is part of MyTargets.
  ~
  ~ MyTargets is free software: you can redistribute it and/or modify
  ~ it under the terms of the GNU General Public License version 2
  ~ as published by the Free Software Foundation.
  ~
  ~ MyTargets is distributed in the hope that it will be useful,
  ~ but WITHOUT ANY WARRANTY; without even the implied warranty of
  ~ MERCHANTABILITY or FITNESS FOR A PARTICULAR PURPOSE.  See the
  ~ GNU General Public License for more details.
  -->

<!-- Generator: Adobe Illustrator 21.0.0, SVG Export Plug-In . SVG Version: 6.00 Build 0)  -->
<svg version="1.1" id="Layer_1" xmlns="http://www.w3.org/2000/svg"  x="0px" y="0px"
	 viewBox="0 0 24 24" style="enable-background:new 0 0 24 24;" xml:space="preserve">
<style type="text/css">
	.st0{fill:#757575;}
</style>
<path class="st0" d="M21.1,7.5h-1.8c0,0-0.1,0-0.1,0c0,0,0,0,0,0c0,0-0.1,0-0.1,0c-0.3,0.1-0.6,0.3-0.6,0.6v0.2
	c0,0.1-0.1,0.2-0.2,0.2H18c-0.1,0-0.2-0.1-0.2-0.2V8.2c0-0.1,0-0.1,0-0.2c-0.1-0.2-0.2-0.4-0.5-0.5c-0.4-0.1-0.8,0.2-0.8,0.6v0.2
	c0,0.1-0.1,0.2-0.2,0.2h-0.3c-0.1,0-0.2-0.1-0.2-0.2V8.2c0-0.3-0.2-0.6-0.5-0.7c-0.4-0.1-0.8,0.2-0.8,0.6v0.2c0,0.1-0.1,0.2-0.2,0.2
	h-0.3c-0.1,0-0.2-0.1-0.2-0.2V8.2c0-0.3-0.2-0.6-0.5-0.7c-0.4-0.1-0.8,0.2-0.8,0.6v0.2c0,0.1-0.1,0.2-0.2,0.2h-0.3
	c-0.1,0-0.2-0.1-0.2-0.2V8.2c0-0.3-0.2-0.6-0.5-0.7C10.4,7.4,10,7.7,10,8.1v0.2c0,0.1-0.1,0.2-0.2,0.2H9.4c-0.1,0-0.2-0.1-0.2-0.2
	V8.2c0-0.3-0.2-0.6-0.5-0.7C8.2,7.4,7.9,7.7,7.9,8.1v0.2c0,0.1-0.1,0.2-0.2,0.2H7.3C7.1,8.6,7,8.5,7,8.3V8.2c0-0.3-0.2-0.6-0.5-0.7
	C6.1,7.4,5.7,7.7,5.7,8.1v0.2c0,0.1-0.1,0.2-0.2,0.2H5.3C4.7,8.6,4.2,9,4.2,9.6v0.6c0,0,0,0,0,0H3.4c-0.2,0-0.3,0.1-0.3,0.3v0.6
	c0,0,0,0,0,0H0.3c-0.1,0-0.3,0.1-0.3,0.3v1.1c0,0.1,0.1,0.3,0.3,0.3h2.8c0,0,0,0,0,0v0.6c0,0.2,0.1,0.3,0.3,0.3h0.8c0,0,0,0,0,0v0.6
	c0,0.6,0.5,1.1,1.1,1.1h0.2c0.1,0,0.2,0.1,0.2,0.2v0.2c0,0.3,0.2,0.6,0.5,0.7C6.7,16.6,7,16.3,7,15.9v-0.2c0-0.1,0.1-0.2,0.2-0.2
	h0.3c0.1,0,0.2,0.1,0.2,0.2v0.2c0,0.3,0.2,0.6,0.5,0.7c0.4,0.1,0.8-0.2,0.8-0.6v-0.2c0-0.1,0.1-0.2,0.2-0.2h0.3
	c0.1,0,0.2,0.1,0.2,0.2v0.2c0,0.3,0.2,0.6,0.5,0.7c0.4,0.1,0.8-0.2,0.8-0.6v-0.2c0-0.1,0.1-0.2,0.2-0.2h0.3c0.1,0,0.2,0.1,0.2,0.2
	v0.2c0,0.3,0.2,0.6,0.5,0.7c0.4,0.1,0.8-0.2,0.8-0.6v-0.2c0-0.1,0.1-0.2,0.2-0.2H14c0.1,0,0.2,0.1,0.2,0.2v0.2
	c0,0.3,0.2,0.6,0.5,0.7c0.4,0.1,0.8-0.2,0.8-0.6v-0.2c0-0.1,0.1-0.2,0.2-0.2h0.3c0.1,0,0.2,0.1,0.2,0.2v0.2c0,0.3,0.2,0.6,0.5,0.7
	c0.4,0.1,0.7-0.2,0.8-0.5c0-0.1,0-0.1,0-0.2v-0.2c0-0.1,0.1-0.2,0.2-0.2h0.3c0.1,0,0.2,0.1,0.2,0.2v0.2c0,0.3,0.2,0.6,0.6,0.6
	c0,0,0.1,0,0.1,0h0c0,0,0,0,0,0c0,0,0.1,0,0.1,0h1.8c1.6,0,2.9-1.3,2.9-2.9V12v-1.6C24,8.8,22.7,7.5,21.1,7.5z"/>
</svg>
