<?xml version="1.0" encoding="utf-8"?>
<!-- Generator: Adobe Illustrator 21.0.0, SVG Export Plug-In . SVG Version: 6.00 Build 0)  -->
<svg version="1.1" id="Ebene_1" xmlns="http://www.w3.org/2000/svg" xmlns:xlink="http://www.w3.org/1999/xlink" x="0px" y="0px"
	 viewBox="0 0 512 512" style="enable-background:new 0 0 512 512;" xml:space="preserve">
<path d="M302.8,227.8c-0.2-0.7-0.4-1.4-0.6-2l0,0c-0.4-1.8-0.9-3.6-1.3-5.5c-0.5-1.9-0.9-3.8-1.4-5.7l-5.1-17.1
	c-10.8-34.7-26.1-68.1-40.9-100.4l-3.7-8.2c-5.3-11.6-11.5-22.7-17.4-32.9c-8-14-9.5-27.7-4.5-42c0.6-1.9,1.6-3.7,2.6-5.7
	c0.4-0.8,0.8-1.5,1.2-2.3l0.1-0.1c2.2-4.8,0.2-7.4-1.8-8.6c-1.6-1-5.6-2.6-8.9,2.7c-7.2,10.7-10.4,22.7-9.3,34.8v425.5
	c0,0.2-0.1,0.3-0.1,0.5c-6,18.1-4,35.2,6,50.9c0,0.1,0.1,0.2,0.1,0.3c0.5,1,1.5,3,3.9,3.6c0.4,0.1,0.8,0.2,1.2,0.2
	c0.9,0,2-0.2,3.2-1.1c1.4-0.9,4-3.5,1.2-8.6l-0.1-0.1c-2.2-4.6-4.9-10.8-5.9-17.7c-1.9-12.8,1.7-24.5,7.9-38.1
	c6-13.2,12.7-26.3,19.2-39c4-7.9,8.2-16.1,12.2-24.2c9.3-19.1,16.9-38.4,25.6-61.6c2.1-5.5,2.8-11.5,2.3-18.4c-0.1-0.9-0.1-2-0.1-3
	c0-0.6,0-1.5,0.1-2.3l0.3-2.8c0.4-3.2,1.1-7.2,1.8-11.1l0.1-0.3v0c0-0.1,0-0.3,0.1-0.4l1.1-5.8c0.1-0.4,0.2-0.9,0.3-1.2l0-0.2
	c1-5.2,1.8-9,1.8-9.1l0.1-0.4v-1c0.3-6.2,2-12.3,3.7-18.7c0.8-3,1.6-6,2.3-9.1C305.7,237.1,303.8,231.1,302.8,227.8z M276.2,183
	c1.7-0.8,3.5-0.7,4.8,0.9c2.3,3.1,3.3,6.8,4.4,10.2c0.1,1.2-0.1,2.1-1.2,2.2c-2,0.2-4.3,0.7-5.5-1.6c-1.3-2.4-2.3-5-3.4-7.6
	C274.6,185.6,274.3,183.9,276.2,183z M270.4,269.3c-0.7,1.5-1.4,3.1-2,4.8c-0.2,0.6-0.3,0.7-0.4,0.8l-0.6,0.7l-0.2,1
	c0,0.1-0.1,0.2-0.2,0.4l0,0c0,0-2.1,4.4-2.9,7.8c-0.6,2.2-0.8,4-0.8,5.6c0,3.1,0.3,6.1,0.7,9c0.4,3.7,0.9,7.1,0.5,10.5
	c-0.4,2.9-0.9,5.8-1.4,8.6c-0.8,4.2-1.5,8.6-1.8,13.1l0,0.4c-0.2,2.9-0.6,7.7,3.3,10.3c0.3,0.2,0.5,0.4,0.6,0.5
	c-0.1,0.4-0.4,1.2-0.6,1.8c-0.1,0.3-0.3,0.7-0.4,1c-8.8,24.4-20.8,48-32.5,70.8l-2.5,4.9c-1.3,2.5-3.2,6.5-5.7,11.7V67.2
	c0.8,1.5,1.6,2.9,2.4,4.3c0.7,1.3,1.5,2.7,2.2,4c13.1,23.2,23.6,48.3,32.4,70c0,0.1,0.1,0.2,0.1,0.3c-2.8,4-2,8.1-1.4,11.2
	c0.1,0.5,0.2,0.9,0.3,1.4c2,11.4,4.7,24.6,10.4,37.2c0.6,1.3,1,2.2,1.3,3v0.1l0.3,0.7c0,0,0,0,0,0l0.1,0.9c0.1,0.5,0.2,1,0.4,1.7
	l0,0.1c0,0.2,0.1,0.5,0.1,0.7l0.1,1.1c0.2,1.7,0.5,4.1,0.7,6.3c0,0.3,0,0.6,0.1,1c0,0.2,0,0.5,0,0.8l0,1.4
	c0.5,7.4,0.9,14.5-1.7,20.7c-2.1,4.9-1.3,8,3,10.7c1.2,0.8,1.7,1.3,1.9,1.5c-0.1,0.3-0.3,0.9-1.2,2.2c-2,3.2-4.3,6.7-6.8,10.3
	c-0.6,1-2.4,3.6-1.3,6.5c0.6,1.5,1.8,2.7,3.6,3.4L270.4,269.3z M279.6,305.9c-0.1,1.8-1,3.3-2.9,3.4c-2.2,0.1-3-1.5-3.3-3.5
	c-0.5-4.2-1.1-8.5-1.4-12.8c-0.2-3.1,1.1-5.5,4-6.8c2.7-1.2,5.2,0.5,5.2,3.9C279.5,294.9,279.7,300.4,279.6,305.9z M281.6,280
	c-2.6,0.1-4.5-1.3-4-4c0.6-3.3,1-8,4.7-8.2c3.9-0.1,2.6,4.8,3.6,7.2C285.7,278.1,284.4,280,281.6,280z M287.9,228.4
	c-4.2,1.6-6.4-0.8-6.5-7.5c0-0.6,0-2.1,0.3-3.5c0.8-3.4,3.3-4.2,6.1-3.2c3.5,1.3,3.2,4.6,3.3,7.6C291.3,224.6,291,227.3,287.9,228.4
	z"/>
</svg>
