<?xml version="1.0" encoding="utf-8"?>
<!--
  ~ Copyright (C) 2017 Florian Dreier
  ~
  ~ This file is part of MyTargets.
  ~
  ~ MyTargets is free software: you can redistribute it and/or modify
  ~ it under the terms of the GNU General Public License version 2
  ~ as published by the Free Software Foundation.
  ~
  ~ MyTargets is distributed in the hope that it will be useful,
  ~ but WITHOUT ANY WARRANTY; without even the implied warranty of
  ~ MERCHANTABILITY or FITNESS FOR A PARTICULAR PURPOSE.  See the
  ~ GNU General Public License for more details.
  -->

<!-- Generator: Adobe Illustrator 21.0.0, SVG Export Plug-In . SVG Version: 6.00 Build 0)  -->
<svg version="1.1" id="Layer_1" xmlns="http://www.w3.org/2000/svg"  x="0px" y="0px"
	 viewBox="0 0 24 24" style="enable-background:new 0 0 24 24;" xml:space="preserve">
<polygon points="2,5 2,19 4,19 4,12 4,5 "/>
<polygon points="4,12 8,15 8,13 14.3,13 14.3,15 18.3,12 14.3,9 14.3,11 8,11 8,9 "/>
<circle cx="6" cy="6" r="1"/>
<circle cx="10" cy="6" r="1"/>
<circle cx="14" cy="6" r="1"/>
<circle cx="6" cy="18" r="1"/>
<circle cx="10" cy="18" r="1"/>
<circle cx="14" cy="18" r="1"/>
<path d="M18.3,12.3c-1.1,1.2-0.7,2.5-0.4,3.9c0.2,0.9,0.4,1.9,0.5,2.8h5.2c-1.8-4.7-3.8-9.4-5.9-14h-2.1c0.8,2,1.7,4,2.5,6.1
	C18.3,11.5,18.7,11.9,18.3,12.3z"/>
</svg>
