<?xml version="1.0" encoding="utf-8"?>
<!--
  ~ Copyright (C) 2018 Florian Dreier
  ~
  ~ This file is part of MyTargets.
  ~
  ~ MyTargets is free software: you can redistribute it and/or modify
  ~ it under the terms of the GNU General Public License version 2
  ~ as published by the Free Software Foundation.
  ~
  ~ MyTargets is distributed in the hope that it will be useful,
  ~ but WITHOUT ANY WARRANTY; without even the implied warranty of
  ~ MERCHANTABILITY or FITNESS FOR A PARTICULAR PURPOSE.  See the
  ~ GNU General Public License for more details.
  -->

<!-- Generator: Adobe Illustrator 21.0.0, SVG Export Plug-In . SVG Version: 6.00 Build 0)  -->
<svg version="1.1" id="Layer_1" xmlns="http://www.w3.org/2000/svg"  x="0px" y="0px"
	 viewBox="0 0 24 24" style="enable-background:new 0 0 24 24;" xml:space="preserve">
<polygon points="2,5 2,19 4,19 4,12 4,5 "/>
<polygon points="4,12 8,15 8,13 14,13 14,15 18,12 14,9 14,11 8,11 8,9 "/>
<circle cx="6" cy="6" r="1"/>
<circle cx="10" cy="6" r="1"/>
<circle cx="14" cy="6" r="1"/>
<circle cx="6" cy="18" r="1"/>
<circle cx="10" cy="18" r="1"/>
<circle cx="14" cy="18" r="1"/>
<path d="M20,19C20,19,20,19,20,19c0.2-3.1,1.3-6.1,1.9-9.1c0-0.1,0.9-3.1,0.7-4.1c0-0.3-0.1-0.5-0.2-0.7h-4.4c0,1.3-0.2,2.5-0.7,3.7
	c-0.4,1-0.3,1.3,0.5,1.8c1.4,0.9,1.5,1.5,0.6,2.9c-0.7,1.1-1.4,2.2-2.1,3.2c-0.4,0.6-0.5,1.1,0.4,1.3c0.7,0.2,0.8,0.6,0.7,1.1H20z"
	/>
</svg>
